<?xml version="1.0" encoding="UTF-8" standalone="no"?>
<svg
   xmlns:dc="http://purl.org/dc/elements/1.1/"
   xmlns:cc="http://creativecommons.org/ns#"
   xmlns:rdf="http://www.w3.org/1999/02/22-rdf-syntax-ns#"
   xmlns:svg="http://www.w3.org/2000/svg"
   xmlns="http://www.w3.org/2000/svg"
   xmlns:sodipodi="http://sodipodi.sourceforge.net/DTD/sodipodi-0.dtd"
   xmlns:inkscape="http://www.inkscape.org/namespaces/inkscape"
   width="177.17"
   height="177.17"
   shape-rendering="geometricPrecision"
   image-rendering="optimizeQuality"
   fill-rule="evenodd"
   clip-rule="evenodd"
   viewBox="0 0 50 50"
   version="1.1"
   id="svg1163"
   sodipodi:docname="black-archer.svg"
   inkscape:version="0.92.5 (2060ec1f9f, 2020-04-08)">
  <metadata
     id="metadata1167">
    <rdf:RDF>
      <cc:Work
         rdf:about="">
        <dc:format>image/svg+xml</dc:format>
        <dc:type
           rdf:resource="http://purl.org/dc/dcmitype/StillImage" />
        <dc:title></dc:title>
      </cc:Work>
    </rdf:RDF>
  </metadata>
  <sodipodi:namedview
     pagecolor="#ffffff"
     bordercolor="#666666"
     borderopacity="1"
     objecttolerance="10"
     gridtolerance="10"
     guidetolerance="10"
     inkscape:pageopacity="0"
     inkscape:pageshadow="2"
     inkscape:window-width="1848"
     inkscape:window-height="1016"
     id="namedview1165"
     showgrid="false"
     inkscape:zoom="3.4523191"
     inkscape:cx="112.92451"
     inkscape:cy="62.603826"
     inkscape:window-x="72"
     inkscape:window-y="27"
     inkscape:window-maximized="1"
     inkscape:current-layer="svg1163"
     showguides="false"
     inkscape:document-rotation="0" />
  <defs
     id="defs1157">
    <inkscape:path-effect
       effect="mirror_symmetry"
       start_point="-80.438505,2.5870606"
       end_point="-37.112887,28.418936"
       center_point="-58.775696,15.502998"
       id="path-effect7013"
       is_visible="true"
       mode="free"
       discard_orig_path="false"
       fuse_paths="true"
       oposite_fuse="true" />
    <linearGradient
       id="0"
       x1="21.19"
       y1="37.552"
       x2="77.74"
       y2="37.429"
       gradientUnits="userSpaceOnUse">
      <stop
         stop-color="#fff"
         id="stop1152" />
      <stop
         offset="1"
         stop-color="#fff"
         stop-opacity="0"
         id="stop1154" />
    </linearGradient>
    <linearGradient
       id="0-7"
       x1="21.375999"
       x2="77.639999"
       gradientUnits="userSpaceOnUse"
       gradientTransform="translate(54.458048,24.598218)">
      <stop
         stop-color="#fff"
         id="stop3334" />
      <stop
         offset="1"
         stop-color="#fff"
         stop-opacity="0"
         id="stop3336" />
    </linearGradient>
    <linearGradient
       gradientUnits="userSpaceOnUse"
       y2="37.469002"
       x2="77.760002"
       y1="37.220001"
       x1="21.129999"
       id="linearGradient9444"
       gradientTransform="translate(-91.535601,53.38202)">
      <stop
         style="stop-color:#a8a6a5;stop-opacity:1"
         offset="0"
         stop-color="#fff"
         stop-opacity="0"
         id="stop9442" />
      <stop
         stop-color="#fff"
         id="stop9440"
         offset="1" />
    </linearGradient>
  </defs>
  <path
     style="fill:#1e1e1e;fill-opacity:1;stroke:#000000;stroke-width:1.69328904;stroke-linecap:butt;stroke-linejoin:miter;stroke-miterlimit:4;stroke-dasharray:none;stroke-opacity:1"
     d="m 17.491847,17.777664 -4.93098,1.778752 c -3.8090126,4.664535 -2.025187,7.524567 -0.951161,10.278763 0.807878,2.071696 1.448414,3.152677 2.155208,2.812684 -0.492166,2.279304 0.88365,2.482971 0.911982,4.101778 0.06159,3.519089 -2.527233,6.955947 -6.3671236,7.60947 0,0 1.4993124,-2.136688 1.1225075,-3.07265 C 9.8590006,41.152229 11.008728,40.604198 11.300869,39.793913 11.856311,37.184333 6.2133693,28.875969 6.8111243,21.87439 8.0735167,20.561889 8.3282687,20.967546 9.4266807,18.53253 10.970335,16.558951 11.48111,15.595052 12.45401,14.86801 c 0.385989,-0.288448 1.104437,-0.170043 1.713337,-0.538489 0.359528,-0.614209 0.230658,-1.330854 0.513445,-1.721008 0.712776,-0.9834 1.669125,-1.508179 3.619981,-3.0804507 2.418738,-1.1338066 2.00941,-1.3826156 3.30336,-2.6640149 6.992118,-0.6998005 15.381892,4.8213746 17.983095,4.2279346 0.805938,-0.303927 1.337143,-1.4615244 1.465138,-1.8901574 0.941358,0.3631153 3.055953,-1.1671989 3.055953,-1.1671989 -0.597453,3.8490133 -3.767687,6.8088313 -7.287299,6.7985673 -1.619048,-0.0047 -2.071263,-1.698567 -4.343147,-1.173213 0.329649,-0.711676 -0.532053,-1.015233 -2.615311,-1.792813 -2.769567,-1.033745 -6.055575,-2.9225335 -10.664064,0.954101 z"
     id="path7011"
     inkscape:connector-curvature="0"
     sodipodi:nodetypes="ccscscccccccscccccscscc" />
  <path
     style="fill:none;stroke:#000000;stroke-width:1.69328904;stroke-linecap:butt;stroke-linejoin:miter;stroke-miterlimit:4;stroke-dasharray:none;stroke-opacity:1;fill-opacity:1"
     d="m 14.053658,39.354384 26.386348,1.251689 -1.41975,-26.11139"
     id="path7026"
     inkscape:connector-curvature="0"
     sodipodi:nodetypes="ccc" />
  <path
     style="fill:none;stroke:#000000;stroke-width:1.69328904;stroke-linecap:butt;stroke-linejoin:miter;stroke-miterlimit:4;stroke-dasharray:none;stroke-opacity:1;fill-opacity:1"
     d="M 40.440006,40.606073 12.615228,13.029564"
     id="path7028"
     inkscape:connector-curvature="0"
     sodipodi:nodetypes="cc" />
  <path
     style="fill:#1f1a17;fill-opacity:1;stroke:#000000;stroke-width:1.69328904;stroke-linecap:butt;stroke-linejoin:miter;stroke-miterlimit:4;stroke-dasharray:none;stroke-opacity:1"
     d="m 12.615228,13.029564 0.633108,-2.180942 -5.6539092,-3.114751 2.7879492,5.698785 2.232852,-0.403092"
     id="path7030"
     inkscape:connector-curvature="0"
     sodipodi:nodetypes="ccccc" />
</svg>
