<?xml version="1.0" encoding="UTF-8" standalone="no"?>
<svg
   xmlns:dc="http://purl.org/dc/elements/1.1/"
   xmlns:cc="http://creativecommons.org/ns#"
   xmlns:rdf="http://www.w3.org/1999/02/22-rdf-syntax-ns#"
   xmlns:svg="http://www.w3.org/2000/svg"
   xmlns="http://www.w3.org/2000/svg"
   xmlns:sodipodi="http://sodipodi.sourceforge.net/DTD/sodipodi-0.dtd"
   xmlns:inkscape="http://www.inkscape.org/namespaces/inkscape"
   width="177.17"
   height="177.17"
   shape-rendering="geometricPrecision"
   image-rendering="optimizeQuality"
   fill-rule="evenodd"
   clip-rule="evenodd"
   viewBox="0 0 50 50"
   version="1.1"
   id="svg936"
   sodipodi:docname="red-rook.svg"
   inkscape:version="0.92.5 (2060ec1f9f, 2020-04-08)">
  <metadata
     id="metadata940">
    <rdf:RDF>
      <cc:Work
         rdf:about="">
        <dc:format>image/svg+xml</dc:format>
        <dc:type
           rdf:resource="http://purl.org/dc/dcmitype/StillImage" />
        <dc:title></dc:title>
      </cc:Work>
    </rdf:RDF>
  </metadata>
  <sodipodi:namedview
     pagecolor="#ffffff"
     bordercolor="#666666"
     borderopacity="1"
     objecttolerance="10"
     gridtolerance="10"
     guidetolerance="10"
     inkscape:pageopacity="0"
     inkscape:pageshadow="2"
     inkscape:window-width="1848"
     inkscape:window-height="1016"
     id="namedview938"
     showgrid="false"
     inkscape:zoom="4.7299205"
     inkscape:cx="88.584999"
     inkscape:cy="88.584999"
     inkscape:window-x="72"
     inkscape:window-y="27"
     inkscape:window-maximized="1"
     inkscape:current-layer="svg936" />
  <defs
     id="defs930">
    <linearGradient
       id="0"
       x1="21.19"
       y1="37.552"
       x2="77.74"
       y2="37.429"
       gradientUnits="userSpaceOnUse">
      <stop
         stop-color="#fff"
         id="stop925" />
      <stop
         offset="1"
         stop-color="#fff"
         stop-opacity="0"
         id="stop927" />
    </linearGradient>
  </defs>
  <path
     fill="#1f1a17"
     d="m28.408 9.22h4.216v-3.395h6.796v9.295l-5.5 4.243v11.857l4.22 4.221v5.08h3.789v5.929h-33.859v-5.929h3.794v-5.08l4.246-4.221v-11.857l-5.508-4.243v-9.295h6.774v3.395h4.242v-3.395h6.79z"
     id="path932"
     style="fill:#ff1a17;fill-opacity:1" />
  <path
     fill="url(#0)"
     d="m25.01 35.04h-10.27l-1.143 1.067v1.439h22.826v-1.439l-1.143-1.067h-10.27m-11.413 5.08v2.532h22.826v-2.532h-22.826m11.413-27.08h-12.7v1.143l1.812 1.363h21.802l1.761-1.363v-1.143h-12.675m0 4.191h-8.678l1.482 1.168v1.414h14.393v-1.414l1.482-1.168h-8.678m0 13.547h-7.197v1.143l-1.482 1.439h17.357l-1.482-1.439v-1.143h-7.197"
     id="path934" />
</svg>
