<?xml version="1.0" encoding="UTF-8" standalone="no"?>
<svg
   xmlns:dc="http://purl.org/dc/elements/1.1/"
   xmlns:cc="http://creativecommons.org/ns#"
   xmlns:rdf="http://www.w3.org/1999/02/22-rdf-syntax-ns#"
   xmlns:svg="http://www.w3.org/2000/svg"
   xmlns="http://www.w3.org/2000/svg"
   xmlns:xlink="http://www.w3.org/1999/xlink"
   xmlns:sodipodi="http://sodipodi.sourceforge.net/DTD/sodipodi-0.dtd"
   xmlns:inkscape="http://www.inkscape.org/namespaces/inkscape"
   width="177.17"
   height="177.17"
   shape-rendering="geometricPrecision"
   image-rendering="optimizeQuality"
   fill-rule="evenodd"
   clip-rule="evenodd"
   viewBox="0 0 50 50"
   version="1.1"
   id="svg4798"
   sodipodi:docname="bMN.svg"
   inkscape:version="0.92.5 (2060ec1f9f, 2020-04-08)">
  <metadata
     id="metadata4802">
    <rdf:RDF>
      <cc:Work
         rdf:about="">
        <dc:format>image/svg+xml</dc:format>
        <dc:type
           rdf:resource="http://purl.org/dc/dcmitype/StillImage" />
        <dc:title></dc:title>
      </cc:Work>
    </rdf:RDF>
  </metadata>
  <sodipodi:namedview
     pagecolor="#ffffff"
     bordercolor="#666666"
     borderopacity="1"
     objecttolerance="10"
     gridtolerance="10"
     guidetolerance="10"
     inkscape:pageopacity="0"
     inkscape:pageshadow="2"
     inkscape:window-width="1848"
     inkscape:window-height="1016"
     id="namedview4800"
     showgrid="false"
     inkscape:zoom="1.8838088"
     inkscape:cx="-96.873525"
     inkscape:cy="206.07327"
     inkscape:window-x="72"
     inkscape:window-y="27"
     inkscape:window-maximized="1"
     inkscape:current-layer="svg4798"
     inkscape:snap-nodes="false"
     inkscape:document-rotation="0" />
  <defs
     id="defs4788">
    <linearGradient
       inkscape:collect="always"
       id="linearGradient6661">
      <stop
         style="stop-color:#ffffff;stop-opacity:1;"
         offset="0"
         id="stop6657" />
      <stop
         style="stop-color:#b3b3b3;stop-opacity:1"
         offset="1"
         id="stop6659" />
    </linearGradient>
    <linearGradient
       id="0"
       x1="21.376"
       x2="77.64"
       gradientUnits="userSpaceOnUse">
      <stop
         stop-color="#fff"
         id="stop4783" />
      <stop
         offset="1"
         stop-color="#fff"
         stop-opacity="0"
         id="stop4785" />
    </linearGradient>
    <linearGradient
       gradientTransform="translate(50.708427,-1.9548155)"
       id="0-3"
       x1="21.129999"
       y1="37.220001"
       x2="77.760002"
       y2="37.469002"
       gradientUnits="userSpaceOnUse">
      <stop
         stop-color="#fff"
         id="stop5461" />
      <stop
         offset="1"
         stop-color="#fff"
         stop-opacity="0"
         id="stop5463" />
    </linearGradient>
    <linearGradient
       gradientTransform="translate(-54.458725,-1.3555716)"
       id="0-2"
       x1="21.375999"
       x2="77.639999"
       gradientUnits="userSpaceOnUse">
      <stop
         stop-color="#fff"
         id="stop6058" />
      <stop
         offset="1"
         stop-color="#fff"
         stop-opacity="0"
         id="stop6060" />
    </linearGradient>
    <linearGradient
       inkscape:collect="always"
       xlink:href="#linearGradient6661"
       id="linearGradient6663"
       x1="18.65144"
       y1="35.580711"
       x2="30.711206"
       y2="35.580711"
       gradientUnits="userSpaceOnUse"
       gradientTransform="translate(4.9999999e-7,4.1105175)" />
    <linearGradient
       inkscape:collect="always"
       xlink:href="#linearGradient6661"
       id="linearGradient6689"
       x1="60.948723"
       y1="78.781807"
       x2="158.5957"
       y2="78.781807"
       gradientUnits="userSpaceOnUse"
       gradientTransform="matrix(0.28221482,0,0,0.28221482,0,4.1105175)" />
    <linearGradient
       inkscape:collect="always"
       xlink:href="#linearGradient6661"
       id="linearGradient6699"
       x1="22.510593"
       y1="9.7722454"
       x2="40.413136"
       y2="9.7722454"
       gradientUnits="userSpaceOnUse"
       gradientTransform="matrix(0.80477768,0,0,0.80477768,4.7633372,6.1338862)" />
    <linearGradient
       id="0-5"
       x1="21.253"
       y1="37.591999"
       x2="77.639999"
       y2="37.469002"
       gradientUnits="userSpaceOnUse">
      <stop
         stop-color="#fff"
         id="stop1132" />
      <stop
         offset="1"
         stop-color="#fff"
         stop-opacity="0"
         id="stop1134" />
    </linearGradient>
  </defs>
  <path
     inkscape:connector-curvature="0"
     style="fill:#000077;fill-opacity:1;stroke-width:0.5"
     d="m 46.920613,8.5685484 c 0.941159,0.9000333 1.645783,1.9279416 2.116971,3.0948096 0.471091,1.157651 0.709897,2.341657 0.715923,3.546383 0.0046,0.843912 -0.103506,1.770089 -0.318827,2.777335 -0.209303,1.007073 -0.534665,1.99378 -0.967116,2.957204 -0.509231,1.120265 -1.143885,2.206432 -1.91735,3.259669 -0.767125,1.052683 -1.509449,2.003468 -2.222942,2.853776 l -1.73617,2.069087 c 0,0 -0.492949,-0.413634 -1.478848,-1.240901 -0.982452,-0.824376 -2.260215,-1.896546 -3.834053,-3.217153 l -6.37234,-5.347028 c -0.05822,-0.04885 0.04622,-0.226214 0.308007,-0.531976 0.264357,-0.308825 0.49344,-0.542165 0.692884,-0.70051 0.150513,-0.133481 0.391839,-0.295846 0.720037,-0.495623 0.331262,-0.197207 0.769917,-0.404163 1.328556,-0.614874 0.271655,-0.119946 0.759605,-0.213742 1.465715,-0.284391 0.709176,-0.06808 1.524757,-0.157177 2.450796,-0.253456 0.530254,-0.05242 1.058449,-0.233855 1.593284,-0.542211 0.531943,-0.304909 0.937584,-0.649874 1.216541,-1.035217 -0.39434,-0.0045 -0.781068,-0.06405 -1.161654,-0.179097 -1.745199,-0.646559 -3.304927,-0.767406 -4.667421,-0.357891 -0.09443,0.01997 -0.451928,0.156656 -1.077434,0.414387 -0.327912,0.134095 -0.576742,0.206615 -0.738054,0.220728 -0.220482,0.01929 -0.453114,-0.05973 -0.690791,-0.236972 -0.367027,-0.280561 -0.50139,-0.680494 -0.394349,-1.209438 -0.33106,-0.145294 -0.595086,-0.311358 -0.795204,-0.501469 -0.242007,-0.429554 -0.378368,-0.787435 -0.410556,-1.074221 -0.0522,-0.59664 0.0095,-1.091808 0.181399,-1.500433 0.174933,-0.406054 0.417472,-0.7938888 0.730188,-1.1665694 0.446416,-0.5320178 1.3643,-0.960838 2.760486,-1.2813797 1.617364,-0.3562178 2.671914,-0.7806692 3.160546,-1.2642102 0.190586,-0.227132 0.428197,-0.464411 0.714179,-0.712666 0.205229,-0.16524 0.44143,-0.288827 0.715585,-0.372082 0.190325,-0.05569 0.319079,-0.09712 0.383049,-0.120463 0.06993,-0.02422 0.181797,-0.05175 0.338613,-0.08073 0.120398,-0.03147 0.218215,-0.04926 0.289744,-0.05516 0.07098,-0.01224 0.165899,-0.02658 0.284281,-0.04865 0.136313,-0.02399 0.302384,-0.04455 0.505256,-0.0623 0.438464,-1.207059 1.102057,-2.274818 1.988592,-3.19989 0.88284,1.503149 1.349889,3.097329 1.394437,4.778871 0.81199,-0.539869 1.711355,-0.77471 2.694115,-0.701339 0.209326,0.778091 0.216827,1.5859063 0.02829,2.4165508"
     id="path1139" />
  <path
     inkscape:connector-curvature="0"
     style="fill:url(#0-5);stroke-width:0.5"
     d="m 40.205129,8.4104233 c 0.199199,0.045745 0.297267,0.067332 0.297267,0.067332 0.2538,0.085686 0.42939,-0.00456 0.532515,-0.2659196 C 41.118021,7.9611 41.026411,7.7739182 40.75492,7.6564186 39.780665,7.3029934 38.84403,7.3714524 37.947647,7.8594349 c -0.219392,0.1696736 -0.264644,0.3745083 -0.132186,0.6188054 0.145895,0.2275058 0.336395,0.2711729 0.575492,0.1239087 0.14176,-0.063154 0.237482,-0.1048891 0.28757,-0.1124655 0.02496,0.1149345 0.08328,0.2297901 0.180644,0.3447782 0.335108,0.3862743 0.702504,0.4073669 1.104527,0.053491 0.136522,-0.1230291 0.215488,-0.2832563 0.240348,-0.4777891 m -6.963983,5.0984494 c 0.07145,-0.03926 0.18461,-0.08855 0.338346,-0.152753 0.32991,-0.176149 0.51538,-0.291393 0.559089,-0.343484 0.137302,-0.183076 0.119249,-0.352916 -0.05273,-0.497221 -0.126398,-0.10606 -0.42467,-0.04696 -0.898757,0.168777 -0.06976,0.03024 -0.146365,0.04297 -0.224899,0.03778 -0.321746,0.03418 -0.420722,0.205032 -0.300698,0.510041 0.103555,0.291189 0.291905,0.383311 0.580352,0.276802 m 8.561402,1.177038 c 0.93411,-0.210909 1.695403,-0.677136 2.287649,-1.39617 0.150721,-0.232517 0.117932,-0.436912 -0.09618,-0.616571 -0.291863,-0.244902 -0.494906,-0.233172 -0.613282,0.03236 -0.27422,0.366473 -0.549108,0.627954 -0.830471,0.778916 -0.448041,0.237589 -0.835678,0.370521 -1.160489,0.402133 -0.257984,0.109877 -0.316752,0.298149 -0.178985,0.562566 0.122345,0.262572 0.318348,0.344797 0.591755,0.236765 m 1.411244,-6.7200671 c 0.161477,-0.2515581 0.374644,-0.4923773 0.639824,-0.7228413 -0.442246,-0.243812 -0.948288,-0.364925 -1.519644,-0.368528 -0.290756,-0.06187 -0.464743,0.04669 -0.518255,0.32749 -0.05641,0.284244 0.06565,0.4421447 0.368307,0.4696118 0.192688,0.040281 0.370658,0.078656 0.52982,0.1129982 0.162055,0.030895 0.326376,0.091759 0.499626,0.1816527 M 42.009229,27.485892 c -0.0065,-0.0055 0.144306,-0.171977 0.448684,-0.50205 1.048745,-1.147946 2.035777,-2.352248 3.027713,-3.54917 0.703769,-0.851943 1.297782,-1.790108 1.784871,-2.818646 0.742074,-1.537775 1.2707,-3.166539 1.428011,-4.869289 0.226878,-2.319273 -0.671909,-4.499603 -2.080747,-6.2992138 -0.197926,0.3338899 -0.482306,0.6004598 -0.713631,0.9095898 0.43864,0.721828 0.801718,1.468367 1.085083,2.236786 0.803557,2.34127 0.118564,4.847907 -1.077617,6.882527 -1.490653,2.765932 -3.54084,4.572179 -5.245181,6.883363 l 1.342493,1.126486 M 33.841062,11.133186 c 0.290505,0.0225 0.435062,-0.110109 0.4389,-0.411048 -0.02999,-0.273846 -0.18453,-0.425711 -0.469743,-0.460737 -0.598973,-0.07181 -1.085677,0.08895 -1.457542,0.479228 -0.167684,0.213062 -0.125492,0.419474 0.125269,0.608348 0.243523,0.171052 0.451858,0.146792 0.627577,-0.07585 0.22044,-0.157698 0.465731,-0.205776 0.735922,-0.139624"
     id="path1141" />
  <g
     id="g5409"
     transform="translate(-47.90079,0.30426165)"
     style="fill:#1f1a17;fill-opacity:1;stroke:#1f1a17;stroke-opacity:1">
    <path
       sodipodi:nodetypes="cssssccc"
       inkscape:connector-curvature="0"
       id="path4760"
       d="m 59.323542,36.845189 c -4.923955,-4.423162 -7.488294,-6.501829 -7.488294,-10.697558 0,-9.536991 12.337066,-10.822594 21.466437,-10.554927 5.225494,0.153208 11.124384,0.559374 15.29758,2.774372 2.841632,1.508247 5.367066,3.823463 5.367066,7.531995 0,4.979028 -4.86475,7.93099 -8.255477,11.017435 -9.050136,-4.451366 -17.738141,-4.590077 -26.387312,-0.07133 z"
       style="fill:#1f1a17;fill-opacity:1;stroke:#1f1a17;stroke-width:1.69329;stroke-linecap:butt;stroke-linejoin:miter;stroke-miterlimit:4;stroke-dasharray:none;stroke-opacity:1" />
    <path
       sodipodi:nodetypes="cccccc"
       inkscape:connector-curvature="0"
       id="path5347"
       d="m 59.323542,36.845189 v 4.984114 c 8.612444,4.713783 17.405516,4.682783 26.375269,0 l 0.01211,-4.912797 v 0 C 76.184699,32.072204 67.50711,32.82843 59.323542,36.845182 Z"
       style="fill:#1f1a17;fill-opacity:1;stroke:#1f1a17;stroke-width:1.69329;stroke-linecap:butt;stroke-linejoin:miter;stroke-miterlimit:4;stroke-dasharray:none;stroke-opacity:1" />
    <path
       sodipodi:nodetypes="cscc"
       inkscape:connector-curvature="0"
       id="path5355"
       d="m 69.58961,15.521388 c 0.403124,-1.901498 1.356191,-3.235945 3.280585,-3.244926 1.682343,-0.0078 3.026638,1.263387 3.423218,3.351902 z"
       style="fill:#1f1a17;fill-opacity:1;stroke:#1f1a17;stroke-width:1.69329;stroke-linecap:butt;stroke-linejoin:miter;stroke-miterlimit:4;stroke-dasharray:none;stroke-opacity:1" />
  </g>
  <path
     style="fill:url(#linearGradient6663);fill-opacity:1;stroke:none;stroke-width:0.282215px;stroke-linecap:butt;stroke-linejoin:miter;stroke-opacity:1"
     d="m 12.584104,37.556428 v 4.269606 c 8.669742,-3.392157 16.447722,-2.994618 24.119531,0 V 37.55643 c -8.355558,-3.453444 -16.162906,-2.929477 -24.119531,-2e-6 z"
     id="path6655"
     inkscape:connector-curvature="0"
     sodipodi:nodetypes="ccccc" />
  <path
     style="fill:url(#linearGradient6689);fill-opacity:1;stroke:none;stroke-width:1.58653;stroke-linecap:butt;stroke-linejoin:miter;stroke-miterlimit:4;stroke-dasharray:none;stroke-opacity:1"
     d="m 23.761165,16.579783 c -8.318037,-0.04159 -18.4779047,1.540534 -18.4779047,9.917756 0,3.931199 4.6874857,7.751611 7.2036437,8.450254 8.923258,-2.85791 15.181568,-3.005271 24.274334,-0.120162 2.877327,-0.869405 7.996819,-3.897588 7.996819,-8.562698 0,-3.474716 -2.366131,-5.64387 -5.028605,-7.057024 -3.910081,-2.075346 -9.436837,-2.455915 -14.332874,-2.599464 -0.534611,-0.01567 -1.080877,-0.02589 -1.635413,-0.02866 z m 0.266782,1.394538 c 0.484161,0.0022 0.960686,0.01026 1.425956,0.0226 4.261001,0.112989 9.070746,0.412539 12.473675,2.046057 2.317142,1.112303 4.853322,2.925312 4.853322,5.660282 0,3.671938 -2.987791,5.818131 -6.202111,6.895837 -7.74358,-2.948395 -16.22963,-2.95732 -23.688406,5.64e-4 C 9.4563491,30.8862 7.9535719,29.067084 7.7377577,25.780978 7.305645,19.20139 16.765517,17.941589 24.027947,17.974321 Z"
     id="path4760-0"
     inkscape:connector-curvature="0"
     sodipodi:nodetypes="ssccssssssssccss" />
  <path
     style="fill:url(#linearGradient6699);fill-opacity:1;stroke:none;stroke-width:0.22712px;stroke-linecap:butt;stroke-linejoin:miter;stroke-opacity:1"
     d="m 22.879359,14.914829 h 4.241281 c -0.190722,-1.337943 -1.365259,-1.720883 -2.15261,-1.712351 -0.810419,0.0088 -1.851236,0.433645 -2.088671,1.712351 z"
     id="path6691"
     inkscape:connector-curvature="0"
     sodipodi:nodetypes="ccsc" />
</svg>
