<?xml version="1.0" encoding="UTF-8" standalone="no"?>
<svg
   xmlns:dc="http://purl.org/dc/elements/1.1/"
   xmlns:cc="http://creativecommons.org/ns#"
   xmlns:rdf="http://www.w3.org/1999/02/22-rdf-syntax-ns#"
   xmlns:svg="http://www.w3.org/2000/svg"
   xmlns="http://www.w3.org/2000/svg"
   xmlns:sodipodi="http://sodipodi.sourceforge.net/DTD/sodipodi-0.dtd"
   xmlns:inkscape="http://www.inkscape.org/namespaces/inkscape"
   inkscape:version="0.92.5 (2060ec1f9f, 2020-04-08)"
   sodipodi:docname="bSB.svg"
   id="svg4260"
   version="1.1"
   viewBox="0 0 50 50"
   clip-rule="evenodd"
   fill-rule="evenodd"
   image-rendering="optimizeQuality"
   shape-rendering="geometricPrecision"
   height="177.17"
   width="177.17">
  <metadata
     id="metadata4266">
    <rdf:RDF>
      <cc:Work
         rdf:about="">
        <dc:format>image/svg+xml</dc:format>
        <dc:type
           rdf:resource="http://purl.org/dc/dcmitype/StillImage" />
        <dc:title />
      </cc:Work>
    </rdf:RDF>
  </metadata>
  <defs
     id="defs4264">
    <inkscape:path-effect
       effect="mirror_symmetry"
       start_point="-103.61098,-3.3341899"
       end_point="-103.61098,147.39645"
       center_point="-103.61098,72.03113"
       id="path-effect4256"
       is_visible="true"
       lpeversion="1"
       mode="free"
       discard_orig_path="false"
       fuse_paths="true"
       oposite_fuse="false"
       split_items="false" />
    <linearGradient
       id="0"
       x1="21.09"
       y1="37.099998"
       x2="77.669998"
       y2="37.469002"
       gradientUnits="userSpaceOnUse">
      <stop
         stop-color="#fff"
         id="stop2339" />
      <stop
         offset="1"
         stop-color="#fff"
         stop-opacity="0"
         id="stop2341" />
    </linearGradient>
  </defs>
  <sodipodi:namedview
     inkscape:current-layer="svg4260"
     inkscape:window-maximized="1"
     inkscape:window-y="27"
     inkscape:window-x="72"
     inkscape:cy="83.489089"
     inkscape:cx="58.513179"
     inkscape:zoom="4.8992494"
     showgrid="false"
     id="namedview4262"
     inkscape:window-height="1016"
     inkscape:window-width="1848"
     inkscape:pageshadow="2"
     inkscape:pageopacity="0"
     guidetolerance="10"
     gridtolerance="10"
     objecttolerance="10"
     borderopacity="1"
     bordercolor="#666666"
     pagecolor="#ffffff"
     inkscape:document-rotation="0" />
  <path
     inkscape:path-effect="#path-effect4256"
     inkscape:original-d="m -103.25391,-3.5996094 c -5.26569,35.1774994 -49.68654,67.5615074 -63.05981,78.5738504 23.39443,-1.486303 41.84318,-5.969219 49.87893,-5.905687 -3.78985,50.016626 -46.94654,39.365156 -46.95985,71.818166 33.16237,0 80.332873,-0.35352 115.787218,-0.35352 -0.006,-11.54918 -5.174356,-28.25734 -18.099609,-30.09179 -44.142829,-81.107313 6.642805,-43.090295 -37.546879,-114.0410194 z"
     transform="matrix(0.28221482,0,0,0.28221482,54.240554,7.3625466)"
     id="path2176-6"
     style="fill:#1f1a17;fill-opacity:1;stroke:none;stroke-width:3.59623;stroke-linecap:butt;stroke-linejoin:round;stroke-miterlimit:4;stroke-dasharray:none;stroke-opacity:1;paint-order:stroke fill markers"
     d="m -103.61098,-1.5197891 c -6.65027,34.3678821 -49.59346,65.6990721 -62.70274,76.4940301 23.39443,-1.486303 41.84318,-5.969219 49.87893,-5.905687 -3.78985,50.016626 -46.94654,39.365156 -46.95985,71.818166 17.32685,0 38.47778,-0.0965 59.78366,-0.18868 21.305878,0.0922 42.456814,0.18868 59.78366,0.18868 -0.01331,-32.45301 -43.17,-21.80154 -46.95985,-71.818166 8.03575,-0.06353 26.4845,4.419384 49.87893,5.905687 -13.109279,-10.794958 -56.052469,-42.126148 -62.70274,-76.4940301 z"
     sodipodi:nodetypes="ccccccc" />
  <path
     inkscape:connector-curvature="0"
     style="fill:#000077;fill-opacity:1;stroke-width:0.5"
     d="m 31.889789,17.094169 c -0.389822,0.286442 -0.709682,0.443612 -0.953065,0.47697 -0.243386,0.03336 -0.531302,0.04045 -0.869879,0.01613 -0.360511,-0.03163 -0.740916,-0.124342 -1.144875,-0.275325 -0.403958,-0.150983 -0.771955,-0.410163 -1.102678,-0.786884 l -2.358755,-2.609089 c -0.09938,-0.105584 -0.193223,-0.184326 -0.291863,-0.244902 -0.09519,-0.05768 -0.181856,-0.119308 -0.25961,-0.184551 -0.132908,-0.111524 -0.325864,-0.223827 -0.582143,-0.333784 -0.25645,-0.115976 -0.489002,-0.161644 -0.69751,-0.143401 l 0.347435,-2.284038 c 0.219434,-0.03126 0.393769,-0.03445 0.524486,-0.01288 0.131593,0.02753 0.281672,0.05947 0.44784,0.10491 0.510857,0.135598 0.990169,0.360907 1.440891,0.673183 0.189415,0.136746 0.367028,0.280559 0.530094,0.428484 0.166513,0.150817 0.350082,0.293754 0.551473,0.429453 0.291655,0.343938 0.591516,0.68432 0.897546,1.018128 0.306202,0.339827 0.612403,0.679654 0.915711,1.022928 0.379575,0.318501 0.668599,0.494445 0.865008,0.532627 0.104024,0.02071 0.274114,0.04203 0.510762,0.06959 0.236648,0.02756 0.514433,0.0061 0.832716,-0.06363 -0.307553,-0.318769 -0.593744,-0.669219 -0.864764,-1.057196 -0.270847,-0.381959 -0.497164,-0.737647 -0.678454,-1.06143 l 3.046205,-1.621886 c -0.256575,-0.701557 -0.409943,-1.2173007 -0.460705,-1.5581807 -0.0477,-0.33831 -0.03447,-0.6698828 0.04235,-0.9924678 0.07944,-0.430706 0.209441,-0.8026618 0.392372,-1.1132358 0.179867,-0.313146 0.364418,-0.572756 0.55316,-0.784466 0.325013,-0.374112 0.763304,-0.719094 1.325043,-1.032288 0.558786,-0.310453 1.231769,-0.447409 2.013806,-0.404744 0.654556,0.02969 1.311017,0.04465 1.95992,0.04218 0.651796,-0.0059 1.343533,-0.06644 2.078103,-0.185004 -0.265391,-0.631934 -0.177962,-1.210624 0.262669,-1.735747 0.299218,-0.356594 0.67581,-0.554927 1.140553,-0.60162 0.46185,-0.04325 0.876181,0.08837 1.236222,0.390484 0.35353,0.296647 0.552356,0.678873 0.592709,1.144171 0.03778,0.468362 -0.08837,0.876182 -0.387914,1.233159 -0.435488,0.518994 -0.990204,0.705583 -1.663764,0.560088 0.0047,0.738857 0.06173,1.427701 0.166023,2.0680488 0.1068,0.636582 0.240513,1.2846498 0.394519,1.9334275 0.171309,0.757287 0.151837,1.439341 -0.06498,2.039998 -0.214339,0.604699 -0.471782,1.102083 -0.780003,1.489632 -0.18223,0.217173 -0.405849,0.444001 -0.679557,0.678406 -0.273708,0.234404 -0.61131,0.432165 -1.015166,0.590649 -0.316984,0.121072 -0.64467,0.188781 -0.986122,0.200554 -0.338393,0.01434 -0.869486,-0.04425 -1.598428,-0.169636 l -1.068273,3.281568 c -0.363371,-0.133242 -0.759468,-0.299821 -1.182657,-0.500227 -0.429144,-0.199531 -0.817838,-0.415377 -1.171763,-0.651654 -0.02023,0.320473 0.0041,0.594812 0.07198,0.822756 0.06792,0.22865 0.121511,0.395025 0.166804,0.498953 0.07024,0.186213 0.294018,0.439911 0.674743,0.759378 0.384217,0.233628 0.768991,0.4736 1.156444,0.715816 0.381879,0.243415 0.772223,0.482186 1.17154,0.718041 0.152139,0.160947 0.318652,0.311765 0.499157,0.45213 0.180505,0.140366 0.356101,0.293583 0.530495,0.461455 0.372455,0.379103 0.677954,0.812332 0.913163,1.302105 0.06709,0.150288 0.124612,0.292541 0.174571,0.417355 0.05045,0.130449 0.07759,0.302688 0.0849,0.524218 l -2.198965,0.730419 c -0.01824,-0.208508 -0.103597,-0.429597 -0.262343,-0.662012 -0.152407,-0.23297 -0.293446,-0.400922 -0.419843,-0.506982 -0.08426,-0.07071 -0.163066,-0.147925 -0.236404,-0.231654 -0.07334,-0.08373 -0.170625,-0.165364 -0.288798,-0.242331 L 33.159384,21.005923 C 32.730956,20.74564 32.399343,20.423652 32.164913,20.044185 31.9271,19.662531 31.777716,19.293724 31.719886,18.941041 c -0.06329,-0.346174 -0.10937,-0.633518 -0.129536,-0.859957 -0.01984,-0.226821 0.08044,-0.557139 0.301735,-0.984994"
     id="path2346" />
  <path
     inkscape:connector-curvature="0"
     style="fill:#ffffff;fill-opacity:1;stroke-width:0.5"
     d="m 37.472562,9.7330253 -0.677498,0.8074107 c -0.19605,0.233643 -0.176932,0.448107 0.05633,0.643836 0.233644,0.19605 0.448108,0.176932 0.643837,-0.05633 l 0.685854,-0.81737 0.856055,0.718315 c 0.220619,0.185122 0.429126,0.16688 0.622284,-0.06332 0.190586,-0.227133 0.172344,-0.43564 -0.04828,-0.620761 L 38.755089,9.6264913 39.473405,8.7704365 c 0.19605,-0.233644 0.176932,-0.448108 -0.05633,-0.643836 -0.233643,-0.1960508 -0.448107,-0.1769328 -0.643836,0.05633 L 38.054924,9.0389853 37.218403,8.3370615 c -0.223685,-0.187694 -0.429128,-0.166881 -0.619714,0.06025 -0.193158,0.230196 -0.17798,0.436132 0.0457,0.6238258 l 0.828486,0.7115 m -1.539778,7.6767747 0.414721,-1.303999 C 35.819414,15.424443 35.1665,14.760403 34.39471,14.112794 33.629432,13.470649 32.868612,12.948427 32.112743,12.551763 l -1.204139,0.625283 c 0.950652,0.460895 1.868807,1.065532 2.754354,1.808594 0.875589,0.734706 1.63135,1.539873 2.270583,2.424799 m 0.845773,-2.62824 0.282164,-0.89633 0.215013,-0.256243 c -0.422717,-0.470883 -0.879266,-0.914674 -1.365704,-1.322844 -0.473415,-0.397243 -0.986679,-0.767221 -1.530325,-1.107213 l -0.224589,0.248208 -0.814182,0.449914 c 0.61721,0.357335 1.225666,0.784997 1.828926,1.291192 0.609771,0.511659 1.142721,1.041751 1.608697,1.593316 m -3.345925,3.315447 c -0.09242,-0.403246 -0.0954,-0.92008 -0.0031,-1.544271 l -0.301438,-0.252936 c -0.261293,0.311397 -0.442988,0.672614 -0.541958,1.086928 l 0.846478,0.710279 m -1.958775,-1.643607 c 0.407224,-0.188945 0.734851,-0.427713 0.979753,-0.719575 l -0.304886,-0.255829 c -0.586318,0.198581 -1.095818,0.28539 -1.532836,0.255482 l 0.856054,0.718315"
     id="path2348" />
</svg>
