<?xml version="1.0" encoding="UTF-8" standalone="no"?>
<svg
   xmlns:dc="http://purl.org/dc/elements/1.1/"
   xmlns:cc="http://creativecommons.org/ns#"
   xmlns:rdf="http://www.w3.org/1999/02/22-rdf-syntax-ns#"
   xmlns:svg="http://www.w3.org/2000/svg"
   xmlns="http://www.w3.org/2000/svg"
   xmlns:xlink="http://www.w3.org/1999/xlink"
   xmlns:sodipodi="http://sodipodi.sourceforge.net/DTD/sodipodi-0.dtd"
   xmlns:inkscape="http://www.inkscape.org/namespaces/inkscape"
   inkscape:version="0.92.5 (2060ec1f9f, 2020-04-08)"
   sodipodi:docname="wSB.svg"
   id="svg4260"
   version="1.1"
   viewBox="0 0 50 50"
   clip-rule="evenodd"
   fill-rule="evenodd"
   image-rendering="optimizeQuality"
   shape-rendering="geometricPrecision"
   height="177.17"
   width="177.17">
  <metadata
     id="metadata4266">
    <rdf:RDF>
      <cc:Work
         rdf:about="">
        <dc:format>image/svg+xml</dc:format>
        <dc:type
           rdf:resource="http://purl.org/dc/dcmitype/StillImage" />
        <dc:title />
      </cc:Work>
    </rdf:RDF>
  </metadata>
  <defs
     id="defs4264">
    <linearGradient
       inkscape:collect="always"
       id="linearGradient995">
      <stop
         style="stop-color:#a0a0a0;stop-opacity:1"
         offset="0"
         id="stop991" />
      <stop
         style="stop-color:#ffffff;stop-opacity:0.9321267"
         offset="1"
         id="stop993" />
    </linearGradient>
    <linearGradient
       inkscape:collect="always"
       xlink:href="#linearGradient995"
       id="linearGradient997"
       x1="44.751381"
       y1="28.784531"
       x2="5.6353607"
       y2="29.005526"
       gradientUnits="userSpaceOnUse" />
    <linearGradient
       id="0"
       x1="21.129999"
       y1="37.591999"
       x2="77.639999"
       y2="37.469002"
       gradientUnits="userSpaceOnUse">
      <stop
         stop-color="#fff"
         id="stop5350"
         style="stop-color:#ff0000;stop-opacity:1" />
      <stop
         offset="1"
         stop-color="#fff"
         stop-opacity="0"
         id="stop5352"
         style="stop-color:#ffdddd;stop-opacity:1" />
    </linearGradient>
  </defs>
  <sodipodi:namedview
     inkscape:current-layer="svg4260"
     inkscape:window-maximized="1"
     inkscape:window-y="27"
     inkscape:window-x="72"
     inkscape:cy="92.613511"
     inkscape:cx="-2.5138227"
     inkscape:zoom="3.6119639"
     showgrid="false"
     id="namedview4262"
     inkscape:window-height="1016"
     inkscape:window-width="1848"
     inkscape:pageshadow="2"
     inkscape:pageopacity="0"
     guidetolerance="10"
     gridtolerance="10"
     objecttolerance="10"
     borderopacity="1"
     bordercolor="#666666"
     pagecolor="#ffffff"
     inkscape:document-rotation="0" />
  <path
     inkscape:connector-curvature="0"
     style="fill:#1f1a17;stroke-width:0.5"
     d="m 31.715516,17.47921 c -0.389822,0.286441 -0.709682,0.443611 -0.953067,0.476971 -0.243384,0.03336 -0.531301,0.04045 -0.869878,0.01613 -0.36051,-0.03164 -0.740915,-0.124342 -1.144874,-0.275324 -0.403958,-0.150983 -0.771955,-0.410164 -1.102678,-0.786885 l -2.358754,-2.609088 c -0.09938,-0.105584 -0.193224,-0.184326 -0.291863,-0.244902 -0.09519,-0.05768 -0.181856,-0.119308 -0.25961,-0.184551 -0.132909,-0.111523 -0.325864,-0.223827 -0.582143,-0.333785 -0.25645,-0.115976 -0.489003,-0.161642 -0.69751,-0.143401 l 0.347051,-2.284357 c 0.219434,-0.03126 0.393769,-0.03445 0.524486,-0.01288 0.131593,0.02753 0.281673,0.05947 0.447839,0.10491 0.510859,0.135596 0.990171,0.360905 1.440891,0.673182 0.189417,0.136747 0.367029,0.28056 0.530095,0.428485 0.166516,0.150813 0.350082,0.293753 0.551473,0.429452 0.291656,0.343938 0.591516,0.684321 0.897545,1.018128 0.306202,0.339827 0.612403,0.679653 0.916033,1.022544 0.379575,0.318502 0.668599,0.494446 0.865007,0.532627 0.104024,0.02071 0.274115,0.04203 0.510762,0.06959 0.236648,0.02756 0.514434,0.0061 0.832717,-0.06363 -0.307553,-0.318769 -0.593744,-0.669218 -0.864765,-1.057195 -0.270847,-0.381959 -0.497163,-0.737647 -0.678453,-1.06143 l 3.046205,-1.621887 c -0.256576,-0.701556 -0.409943,-1.2173 -0.460706,-1.55818 -0.0477,-0.3383101 -0.03448,-0.6698821 0.04236,-0.9924681 0.07944,-0.430705 0.209441,-0.802661 0.392372,-1.113236 0.179867,-0.313146 0.364419,-0.572756 0.55316,-0.784466 0.325013,-0.374111 0.763304,-0.719094 1.325043,-1.032288 0.558786,-0.310452 1.231768,-0.447409 2.013805,-0.404744 0.654555,0.02968 1.311018,0.04465 1.95992,0.04218 0.651797,-0.0059 1.343534,-0.06644 2.078104,-0.185006 -0.26539,-0.631934 -0.177961,-1.210623 0.262669,-1.735747 0.299218,-0.356594 0.67581,-0.554926 1.140553,-0.601619 0.461849,-0.04324 0.87618,0.08837 1.236221,0.390485 0.35353,0.296647 0.552355,0.678873 0.592709,1.144171 0.03778,0.468362 -0.08837,0.876182 -0.387914,1.233158 -0.435488,0.518996 -0.990204,0.705584 -1.663764,0.560089 0.0047,0.738856 0.06173,1.427701 0.166025,2.06805 0.106799,0.636582 0.240191,1.285033 0.394516,1.9334271 0.171306,0.757283 0.14862,1.443168 -0.06499,2.039995 -0.21434,0.604698 -0.47146,1.101701 -0.780004,1.489631 -0.18223,0.217174 -0.40585,0.444002 -0.679557,0.678407 -0.273707,0.234404 -0.61131,0.432164 -1.015166,0.590649 -0.316984,0.121072 -0.64467,0.18878 -0.986122,0.200553 -0.338388,0.01435 -0.869481,-0.04424 -1.598422,-0.169632 l -1.068279,3.281564 c -0.363367,-0.133239 -0.759462,-0.299816 -1.182651,-0.500222 -0.429144,-0.199531 -0.817838,-0.415377 -1.171765,-0.651656 -0.02023,0.320474 0.0038,0.594492 0.07198,0.822758 0.06792,0.22865 0.121511,0.395025 0.167187,0.499274 0.07024,0.186214 0.294018,0.439911 0.674742,0.759376 0.384217,0.233629 0.768603,0.473275 1.156118,0.716198 0.381878,0.243415 0.772224,0.482185 1.17154,0.718041 0.152139,0.160947 0.318652,0.311765 0.499157,0.45213 0.180502,0.14037 0.356101,0.293582 0.530111,0.461134 0.372456,0.379103 0.677956,0.81233 0.913164,1.302104 0.06709,0.150288 0.124612,0.292541 0.174571,0.417355 0.05045,0.130449 0.07759,0.302688 0.0849,0.524219 l -2.198964,0.730417 c -0.01825,-0.208505 -0.103598,-0.429595 -0.262345,-0.662011 -0.152406,-0.23297 -0.293446,-0.400921 -0.419843,-0.506981 -0.08426,-0.07071 -0.16307,-0.147921 -0.236404,-0.231654 -0.07334,-0.08373 -0.170625,-0.165364 -0.288799,-0.242331 l -2.972532,-1.864392 c -0.428428,-0.260281 -0.76004,-0.582269 -0.99447,-0.961736 -0.237815,-0.381655 -0.3872,-0.750462 -0.445029,-1.103146 -0.06329,-0.346172 -0.109371,-0.633516 -0.129537,-0.859955 -0.01985,-0.226823 0.08044,-0.557139 0.301735,-0.984994"
     id="path5357" />
  <path
     inkscape:connector-curvature="0"
     style="fill:url(#0);stroke-width:0.5"
     d="m 32.953011,16.683494 c -0.350963,0.418261 -0.55666,0.853978 -0.609559,1.312174 -0.05596,0.455624 -0.04223,0.860078 0.04589,1.210111 0.132005,0.547425 0.534982,1.100954 1.20642,1.664358 0.165466,0.138842 0.519776,0.375442 1.059482,0.706906 0.444341,0.267762 0.799792,0.489 1.064694,0.661022 0.264581,0.172404 0.445562,0.285755 0.546218,0.336928 0.267473,0.168957 0.514803,0.387588 0.742375,0.656215 0.0785,0.110251 0.173293,0.228305 0.27728,0.35407 0.104371,0.126087 0.167353,0.261828 0.185499,0.404331 l 1.077619,-0.355488 C 38.401147,23.283628 38.204434,22.958 37.953388,22.664455 37.544168,22.177484 37.13628,21.80716 36.7375,21.544993 36.619709,21.468343 36.453292,21.383535 36.237051,21.28498 36.018301,21.19019 35.74384,21.042787 35.410111,20.834554 34.681068,20.399696 34.302809,20.165192 34.263741,20.13241 34.017075,19.925433 33.827774,19.716985 33.697412,19.496638 33.566727,19.276674 33.461917,19.072546 33.378657,18.875406 33.169129,18.439816 33.130733,17.794055 33.254064,16.93611 l -0.301439,-0.252937 m -0.674502,-0.565975 -0.304886,-0.255829 c -0.83547,0.271486 -1.475022,0.348378 -1.921894,0.222089 -0.215114,-0.05323 -0.437788,-0.123889 -0.67672,-0.214071 -0.239316,-0.0905 -0.474725,-0.237776 -0.71488,-0.439289 -0.04558,-0.03824 -0.341822,-0.369717 -0.890542,-1.007029 C 27.503117,14.127999 27.300715,13.87527 27.169,13.675981 27.031328,13.477568 26.919227,13.328024 26.829482,13.231178 26.50173,12.884365 26.069971,12.549489 25.51589,12.228155 25.18321,12.031896 24.831818,11.897609 24.467117,11.818077 l -0.162962,1.122977 c 0.137361,-0.01202 0.27853,0.02354 0.420825,0.104435 0.142296,0.08089 0.274633,0.153423 0.39684,0.211583 0.304062,0.177469 0.562705,0.383398 0.775158,0.617147 0.06787,0.09024 0.21093,0.248788 0.426659,0.479412 0.215729,0.230624 0.498455,0.545532 0.845437,0.941769 0.413636,0.468486 0.708167,0.776327 0.880144,0.920633 0.664926,0.557939 1.280023,0.858675 1.848565,0.899078 0.353122,0.02022 0.751136,-0.03874 1.189737,-0.173294 0.442049,-0.131659 0.838874,-0.407001 1.189837,-0.825262 m 3.344575,-3.294389 c 0.612835,0.51423 1.162256,1.058142 1.647384,1.625778 0.80447,0.299073 1.54647,0.330335 2.21709,0.09741 0.580189,-0.203723 1.075784,-0.55088 1.483954,-1.037318 0.244902,-0.291863 0.442988,-0.672615 0.593703,-1.148596 0.147823,-0.472533 0.177872,-0.989063 0.08638,-1.552099 -0.11177,-0.624434 -0.234353,-1.3075471 -0.368514,-2.0499801 -0.130713,-0.739541 -0.207173,-1.544517 -0.231333,-2.40482 -0.85794,0.120133 -1.663581,0.184939 -2.418031,0.181739 -0.754451,-0.0032 -1.445408,-0.0027 -2.073253,0.0011 -0.576881,0.0022 -1.080346,0.12149 -1.516584,0.352014 -0.439131,0.233971 -0.780084,0.494843 -1.024986,0.786706 -0.40817,0.486438 -0.666736,1.031833 -0.773832,1.633183 -0.11945,0.6954151 0.04363,1.4236061 0.490878,2.1748481 0.636744,0.373726 1.267798,0.82035 1.887145,1.340044 m -1.450451,1.728579 c 0.74268,0.623183 1.390132,1.293736 1.951758,2.013678 l 0.52862,-1.551752 c -0.484081,-0.555661 -1.007284,-1.0717 -1.571476,-1.545113 -0.577214,-0.48434 -1.179652,-0.912174 -1.801034,-1.284759 l -1.43983,0.787155 c 0.800401,0.422935 1.579707,0.949574 2.331962,1.580791 m 7.564644,-9.0151991 c 0.431283,0.36189 0.825052,0.327439 1.186941,-0.103844 0.361889,-0.431283 0.33001,-0.828115 -0.101273,-1.190005 -0.431283,-0.361889 -0.827623,-0.324375 -1.189512,0.106908 -0.361889,0.431283 -0.327439,0.825052 0.103844,1.186941 M 33.055279,15.880986 c 0.431283,0.361889 0.879433,0.67723 1.347897,0.948915 0.471357,0.268237 0.940296,0.512909 1.404015,0.730353 -0.579412,-0.817757 -1.309129,-1.601071 -2.194294,-2.343812 -0.898187,-0.753668 -1.796635,-1.335896 -2.689239,-1.753959 0.282025,0.408309 0.597899,0.822174 0.946975,1.242362 0.35197,0.416741 0.746851,0.808788 1.184646,1.176141 m 4.266352,-5.77596 -0.783289,-0.6735761 c -0.214109,-0.179659 -0.231303,-0.376191 -0.04875,-0.593747 0.179659,-0.21411 0.376191,-0.231304 0.590301,-0.05165 l 0.791324,0.664 0.685854,-0.81737 c 0.185123,-0.220621 0.39363,-0.238863 0.620762,-0.04828 0.220621,0.185123 0.238863,0.39363 0.05374,0.614251 l -0.685854,0.8173701 0.817369,0.685854 c 0.207598,0.174195 0.221729,0.368156 0.04207,0.582266 -0.18223,0.217173 -0.376019,0.237322 -0.583617,0.06313 l -0.81737,-0.685854 -0.653072,0.778301 c -0.193158,0.230197 -0.401986,0.248822 -0.622607,0.0637 -0.227132,-0.190587 -0.245374,-0.399094 -0.0519,-0.629673 l 0.646002,-0.769875"
     id="path5359" />
  <path
     id="path2176-6"
     style="fill:url(#linearGradient997);fill-opacity:1;stroke:#000000;stroke-width:1.66507;stroke-linecap:round;stroke-linejoin:miter;stroke-miterlimit:4;stroke-dasharray:none;stroke-opacity:1;paint-order:markers fill stroke"
     d="M 25.000001,9.8017823 C 21.927025,16.89361 12.527083,26.325314 9.2300562,29.04028 15.113832,28.66647 19.753753,27.539003 21.774771,27.554982 20.821611,40.134326 12.072925,37.600645 9.9642141,45.617486 c 4.3577599,0 9.6772879,-0.02427 15.0357869,-0.04746 5.358497,0.02319 10.678027,0.04746 15.035786,0.04746 C 37.854439,37.818441 29.17839,40.134326 28.22523,27.554982 30.246248,27.539002 34.88617,28.66647 40.769945,29.04028 37.472919,26.325314 27.921581,16.817912 25.000001,9.8017823 Z"
     sodipodi:nodetypes="ccccccccc" />
</svg>
