<?xml version="1.0" encoding="UTF-8" standalone="no"?>
<!-- Generator: Adobe Illustrator 25.2.0, SVG Export Plug-In . SVG Version: 6.00 Build 0)  -->

<svg
   xmlns:dc="http://purl.org/dc/elements/1.1/"
   xmlns:cc="http://creativecommons.org/ns#"
   xmlns:rdf="http://www.w3.org/1999/02/22-rdf-syntax-ns#"
   xmlns:svg="http://www.w3.org/2000/svg"
   xmlns="http://www.w3.org/2000/svg"
   xmlns:sodipodi="http://sodipodi.sourceforge.net/DTD/sodipodi-0.dtd"
   xmlns:inkscape="http://www.inkscape.org/namespaces/inkscape"
   version="1.1"
   id="svg4905"
   inkscape:version="0.92.5 (2060ec1f9f, 2020-04-08)"
   sodipodi:docname="0GI-dark.svg"
   x="0px"
   y="0px"
   width="52.2px"
   height="60px"
   viewBox="0 0 52.2 60"
   style="enable-background:new 0 0 52.2 60;"
   xml:space="preserve"><metadata
   id="metadata941"><rdf:RDF><cc:Work
       rdf:about=""><dc:format>image/svg+xml</dc:format><dc:type
         rdf:resource="http://purl.org/dc/dcmitype/StillImage" /><dc:title /></cc:Work></rdf:RDF></metadata><defs
   id="defs939">
	
	
	
	
	
	
	
	
	
	
	
	
	
	
	
	
	
</defs>
<style
   type="text/css"
   id="style899">
	.st0{fill:#A3D6A6;}
	.st1{fill:none;stroke:#000000;stroke-width:0.722;stroke-linecap:square;stroke-miterlimit:5.2063;}
	.st2{fill:#E95C35;}
	.st3{fill:none;stroke:#000000;stroke-width:0.4434;stroke-linecap:square;stroke-miterlimit:5.2063;}
	.st4{fill:#FFF1A6;}
</style>
<sodipodi:namedview
   bordercolor="#666666"
   borderopacity="1"
   gridtolerance="10"
   guidetolerance="10"
   id="namedview4907"
   inkscape:current-layer="svg4905"
   inkscape:cx="19.563933"
   inkscape:cy="33.414667"
   inkscape:document-rotation="0"
   inkscape:pageopacity="0"
   inkscape:pageshadow="2"
   inkscape:window-height="1016"
   inkscape:window-maximized="1"
   inkscape:window-width="1848"
   inkscape:window-x="72"
   inkscape:window-y="27"
   inkscape:zoom="13.183917"
   objecttolerance="10"
   pagecolor="#ffffff"
   showgrid="false">
	</sodipodi:namedview>
<path
   style="fill:#664c10;fill-opacity:1"
   inkscape:connector-curvature="0"
   id="path902"
   d="M 6.2,7.4 H 46 c 1.5,0 2.8,1.2 2.8,2.8 V 50 c 0,1.5 -1.2,2.8 -2.8,2.8 H 6.2 C 4.7,52.8 3.4,51.6 3.4,50 V 10.1 C 3.4,8.6 4.7,7.4 6.2,7.4 Z"
   class="st0" /><path
   style="fill:none;stroke:#000000;stroke-width:0.722;stroke-linecap:square;stroke-miterlimit:5.20629978"
   inkscape:connector-curvature="0"
   id="path904"
   d="M 6.2,7.4 H 46 c 1.5,0 2.8,1.2 2.8,2.8 V 50 c 0,1.5 -1.2,2.8 -2.8,2.8 H 6.2 C 4.7,52.8 3.4,51.6 3.4,50 V 10.1 C 3.4,8.6 4.7,7.4 6.2,7.4 Z"
   class="st1" /><path
   style="fill:#e95c35"
   inkscape:connector-curvature="0"
   id="path906"
   d="m 7.1,9.8 c 0.9,0 1.7,0.7 1.7,1.7 0,0.9 -0.7,1.7 -1.7,1.7 -0.9,0 -1.7,-0.7 -1.7,-1.7 0,-1 0.8,-1.7 1.7,-1.7 z"
   class="st2" /><path
   style="fill:none;stroke:#000000;stroke-width:0.4434;stroke-linecap:square;stroke-miterlimit:5.20629978"
   inkscape:connector-curvature="0"
   id="path908"
   d="m 7.1,9.8 c 0.9,0 1.7,0.7 1.7,1.7 0,0.9 -0.7,1.7 -1.7,1.7 -0.9,0 -1.7,-0.7 -1.7,-1.7 0,-1 0.8,-1.7 1.7,-1.7 z"
   class="st3" /><path
   style="fill:#e95c35"
   inkscape:connector-curvature="0"
   id="path910"
   d="m 25.8,9.7 c 0.9,0 1.7,0.7 1.7,1.7 0,0.9 -0.7,1.7 -1.7,1.7 -0.9,0 -1.7,-0.7 -1.7,-1.7 0,-1 0.8,-1.7 1.7,-1.7 z"
   class="st2" /><path
   style="fill:none;stroke:#000000;stroke-width:0.4434;stroke-linecap:square;stroke-miterlimit:5.20629978"
   inkscape:connector-curvature="0"
   id="path912"
   d="m 25.8,9.7 c 0.9,0 1.7,0.7 1.7,1.7 0,0.9 -0.7,1.7 -1.7,1.7 -0.9,0 -1.7,-0.7 -1.7,-1.7 0,-1 0.8,-1.7 1.7,-1.7 z"
   class="st3" /><path
   style="fill:#e95c35"
   inkscape:connector-curvature="0"
   id="path914"
   d="m 44.1,9.7 c 0.9,0 1.7,0.7 1.7,1.7 0,1 -0.7,1.6 -1.7,1.6 -1,0 -1.7,-0.7 -1.7,-1.7 0,-1 0.8,-1.6 1.7,-1.6 z"
   class="st2" /><path
   style="fill:none;stroke:#000000;stroke-width:0.4434;stroke-linecap:square;stroke-miterlimit:5.20629978"
   inkscape:connector-curvature="0"
   id="path916"
   d="m 44.1,9.7 c 0.9,0 1.7,0.7 1.7,1.7 0,1 -0.7,1.6 -1.7,1.6 -1,0 -1.7,-0.7 -1.7,-1.7 0,-1 0.8,-1.6 1.7,-1.6 z"
   class="st3" /><path
   style="fill:#e95c35"
   inkscape:connector-curvature="0"
   id="path918"
   d="m 7.1,47.1 c 0.9,0 1.7,0.7 1.7,1.7 0,1 -0.8,1.6 -1.7,1.6 -0.9,0 -1.7,-0.7 -1.7,-1.7 0,-1 0.8,-1.6 1.7,-1.6 z"
   class="st2" /><path
   style="fill:none;stroke:#000000;stroke-width:0.4434;stroke-linecap:square;stroke-miterlimit:5.20629978"
   inkscape:connector-curvature="0"
   id="path920"
   d="m 7.1,47.1 c 0.9,0 1.7,0.7 1.7,1.7 0,1 -0.8,1.6 -1.7,1.6 -0.9,0 -1.7,-0.7 -1.7,-1.7 0,-1 0.8,-1.6 1.7,-1.6 z"
   class="st3" /><circle
   style="fill:#e95c35"
   id="circle922"
   r="1.7"
   cy="48.700001"
   cx="44"
   class="st2" /><circle
   style="fill:none;stroke:#000000;stroke-width:0.4434;stroke-linecap:square;stroke-miterlimit:5.20629978"
   id="circle924"
   r="1.7"
   cy="48.700001"
   cx="44"
   class="st3" /><path
   inkscape:connector-curvature="0"
   id="path926"
   d="m 14.3,39.8 c -2.2,-2.4 -2.9,-5.5 -2.2,-9.9 0.4,-2.6 0.8,-3.6 2.9,-7.8 1.3,-2.7 2.5,-4.9 2.7,-4.9 0.1,0 1.1,0.9 2.1,2.2 2.1,2.5 2.8,3 4.4,3 2.4,0 3.1,-0.6 4.7,-3.7 l 1.5,-2.9 1.5,1 c 3.3,2.1 7.6,9.4 8.2,14 0.8,5.9 -2.9,11.4 -8.8,12.9 -5.8,1.5 -13.7,-0.3 -17,-3.9 z M 24.8,43 c 4.5,0.3 7.3,-0.3 10,-2.2 1.7,-1.2 2.4,-2 3.1,-3.4 0.5,-1 0.8,-1.9 0.7,-1.9 -0.1,-0.1 -1.2,-0.1 -2.5,-0.1 -2.2,0 -3,-0.4 -2.1,-0.9 0.2,-0.1 1.4,-0.2 2.6,-0.2 1.2,0 2.3,0 2.4,0 0.3,-0.1 0.2,-2.7 -0.1,-2.8 -0.1,-0.1 -1.2,-0.1 -2.5,0 -1.2,0.1 -2.4,0 -2.6,-0.1 -0.9,-0.4 0,-0.8 2.5,-0.9 l 2.6,-0.1 -0.6,-1.9 c -0.8,-2.7 -3.3,-7 -5.2,-8.9 -0.9,-0.9 -1.7,-1.7 -1.8,-1.8 -0.1,-0.1 -0.9,1 -1.8,2.4 -1.8,2.9 -2.8,3.6 -5.2,3.5 C 22,23.6 21,23 19.3,20.9 L 17.9,19.1 16,22.6 c -2,3.8 -3,6.8 -3,8.9 v 1.2 l 3.3,-0.1 c 1.8,0 3.4,0.1 3.5,0.3 0.4,0.6 -0.3,0.8 -3.4,0.9 -1.6,0 -3,0.1 -3.1,0.1 -0.1,0 -0.1,0.5 -0.1,1.2 l 0.1,1.1 h 2.1 c 2.3,0 3.3,0.3 2.9,1 -0.1,0.2 -1,0.3 -1.9,0.2 -2.2,-0.3 -2.6,0.2 -1.5,1.5 1.6,1.9 6.2,3.8 9.9,4.1 z m -1.3,-6.7 c 0.1,-0.2 0.6,-0.4 1.1,-0.6 0.8,-0.2 1.1,-0.5 1.4,-1.5 0.4,-1.5 1,-1.4 1.2,0.3 0.1,1 0.3,1.2 1.4,1.6 0.9,0.3 1.2,0.5 1,0.9 -1.6,1.1 -2.4,-2 -4.3,-0.3 -1,0.4 -2,0.1 -1.8,-0.4 z" /><path
   inkscape:connector-curvature="0"
   id="path928"
   d="m 22.3,28.7 c 0.8,0 1.5,0.7 1.4,1.5 0,0.8 -0.7,1.5 -1.5,1.4 -0.8,-0.1 -1.5,-0.7 -1.4,-1.5 0,-0.8 0.6,-1.4 1.5,-1.4 z" /><path
   inkscape:connector-curvature="0"
   id="path930"
   d="m 29.7,28.6 c 0.8,0 1.5,0.7 1.4,1.5 0,0.8 -0.7,1.5 -1.5,1.4 -0.8,0 -1.5,-0.7 -1.4,-1.5 0,-0.8 0.7,-1.4 1.5,-1.4 z" /><path
   style="fill:#fff1a6"
   inkscape:connector-curvature="0"
   id="path932"
   d="m 31.4,17.6 c -1.7,1.8 -2.5,4.5 -4.8,5.6 -1.5,0.5 -3.3,0.3 -4.8,-0.3 -1.6,-0.8 -2.5,-2.6 -3.8,-3.7 -1.2,1.8 -2.1,3.9 -3.1,5.9 -0.9,2.2 -1.9,4.5 -1.8,7 -0.2,1.1 1.3,0.5 2,0.7 1.5,0.1 3.1,-0.1 4.6,0.2 0.6,0.3 -0.2,0.6 -0.5,0.6 -1.9,0.4 -3.8,0.1 -5.7,0.5 -0.5,0.5 0,1.4 -0.1,2 0.6,0.4 1.6,0.1 2.3,0.2 0.9,0.1 2.1,-0.1 2.8,0.7 0.2,0.5 -0.8,0.4 -1.1,0.5 -0.9,0.1 -2,-0.1 -2.9,0.2 -0.2,0.8 0.6,1.4 1.1,1.9 2.5,2 5.7,3 8.9,3.4 0.5,0 1.5,0 2.2,0 3.3,0.1 6.7,-0.8 9.2,-3.1 1.4,-1.1 2.3,-2.8 2.8,-4.5 -1.5,-0.3 -3.3,0.1 -4.8,-0.5 -0.3,-0.4 0.5,-0.6 0.8,-0.7 1.5,-0.2 3,0 4.4,-0.2 0.2,-0.9 0.2,-1.8 -0.1,-2.7 -1.4,-0.3 -2.9,0 -4.4,-0.1 -0.3,0 -1.1,-0.1 -0.9,-0.5 1.6,-0.6 3.5,-0.4 5.2,-0.6 -0.1,-0.9 -0.5,-1.9 -0.8,-2.8 -1.5,-3.6 -3.8,-7.1 -6.7,-9.7 z m -1.7,11.1 c 0.9,0 1.7,1 1.4,1.8 -0.3,1.2 -2.2,1.5 -2.7,0.2 -0.4,-0.9 0.3,-2.1 1.3,-2 z m -7.5,0 c 0.9,0 1.8,1 1.4,1.8 -0.2,1.1 -1.9,1.5 -2.5,0.4 -0.8,-0.7 -0.1,-2.3 1.1,-2.2 z m 4.5,4.6 c 0.8,0.5 0.3,1.9 1.1,2.4 0.5,0.5 1.5,0.5 1.8,1.1 -0.4,0.7 -1.4,0.2 -1.9,-0.1 -0.7,-0.5 -1.7,-0.6 -2.4,-0.1 -0.5,0.2 -1.5,0.5 -1.8,-0.2 0.4,-0.7 1.6,-0.5 2.1,-1.3 0.5,-0.5 0.4,-1.5 1.1,-1.8 z"
   class="st4" /><path
   style="fill:#fff1a6"
   inkscape:connector-curvature="0"
   id="path934"
   d="m 31.3,17.6 c -0.4,0.3 -0.7,0.8 -1,1.2 -0.9,1.3 -1.7,2.8 -2.9,3.8 -0.7,0.6 -1.6,0.8 -2.4,0.9 -1.3,0 -2.6,-0.2 -3.7,-0.9 -1.2,-0.9 -2.1,-2.2 -3.2,-3.3 0,-0.2 -0.3,0 -0.4,0.1 -0.8,1.2 -1.4,2.5 -2,3.8 -1.1,2.2 -2.1,4.5 -2.6,6.9 -0.1,0.9 -0.2,1.7 -0.1,2.6 0.4,0.2 0.9,0.1 1.3,0.2 1.3,0 2.6,0 3.9,0 0.5,0.1 1,0 1.4,0.3 0.2,0.2 -0.1,0.4 -0.2,0.4 -1.1,0.3 -2.2,0.2 -3.3,0.3 -0.9,0.1 -1.8,0 -2.7,0.2 -0.4,0.1 -0.3,0.7 -0.3,1 0.1,0.4 0.1,0.8 0.1,1.2 0.2,0.3 0.6,0.2 0.9,0.2 1.2,0.1 2.3,0 3.5,0.2 0.3,0.1 0.6,0.2 0.7,0.6 -0.1,0.3 -0.5,0.2 -0.8,0.3 -0.9,0.1 -1.8,0 -2.7,0 -0.2,0.1 -0.5,0.1 -0.5,0.3 -0.1,0.7 0.5,1.2 0.9,1.6 1.5,1.4 3.5,2.3 5.5,2.9 1.8,0.6 3.7,0.8 5.5,0.8 2.7,0.1 5.5,-0.3 7.8,-1.8 1.5,-0.9 2.9,-2.1 3.8,-3.7 0.3,-0.7 0.7,-1.3 0.8,-2 -0.1,-0.2 -0.4,-0.1 -0.5,-0.1 -1.2,-0.1 -2.4,0 -3.6,-0.2 -0.2,-0.1 -0.6,-0.1 -0.7,-0.4 0.1,-0.3 0.5,-0.3 0.7,-0.4 1.5,-0.2 3,-0.1 4.5,-0.2 0.2,-0.1 0.1,-0.4 0.2,-0.7 0,-0.7 0.1,-1.4 -0.2,-2.1 -0.1,-0.2 -0.4,-0.1 -0.6,-0.1 -1.5,-0.1 -3,0.1 -4.5,-0.1 -0.1,0 -0.4,-0.3 -0.1,-0.4 1,-0.4 2.1,-0.4 3.2,-0.4 0.6,-0.1 1.3,0 1.9,-0.1 0.1,-0.2 0,-0.5 -0.1,-0.7 -0.9,-3.2 -2.5,-6.2 -4.4,-8.8 -0.9,-1.4 -1.9,-2.5 -3.1,-3.4 z m -1.6,11.1 c 0.8,0 1.5,0.9 1.3,1.7 -0.1,0.7 -0.9,1.2 -1.7,1.1 -0.7,-0.1 -1.2,-0.9 -1.1,-1.6 0.2,-0.7 0.8,-1.3 1.5,-1.2 z m -7.5,0.1 c 0.9,0 1.6,0.9 1.4,1.7 -0.2,0.9 -1.4,1.4 -2.2,0.8 -0.4,-0.4 -0.7,-0.9 -0.5,-1.5 0.1,-0.6 0.6,-1.1 1.3,-1 z m 4.4,4.5 c 0.4,0.2 0.4,0.8 0.5,1.2 0.1,0.6 0.2,1.2 0.8,1.4 0.5,0.3 1.2,0.4 1.5,0.8 0,0.2 -0.3,0.3 -0.5,0.3 -0.7,0 -1.3,-0.5 -1.9,-0.8 -0.5,-0.2 -1.1,-0.2 -1.6,0.1 -0.5,0.3 -1.2,0.6 -1.8,0.2 -0.1,-0.1 -0.3,-0.2 -0.1,-0.3 0.6,-0.5 1.5,-0.5 2,-1.2 0.6,-0.4 0.6,-1.2 1.1,-1.7 z"
   class="st4" />
</svg>