<?xml version="1.0" encoding="UTF-8" standalone="no"?>
<svg
   xmlns:dc="http://purl.org/dc/elements/1.1/"
   xmlns:cc="http://creativecommons.org/ns#"
   xmlns:rdf="http://www.w3.org/1999/02/22-rdf-syntax-ns#"
   xmlns:svg="http://www.w3.org/2000/svg"
   xmlns="http://www.w3.org/2000/svg"
   xmlns:xlink="http://www.w3.org/1999/xlink"
   xmlns:sodipodi="http://sodipodi.sourceforge.net/DTD/sodipodi-0.dtd"
   xmlns:inkscape="http://www.inkscape.org/namespaces/inkscape"
   width="177.17"
   height="177.17"
   shape-rendering="geometricPrecision"
   image-rendering="optimizeQuality"
   fill-rule="evenodd"
   clip-rule="evenodd"
   viewBox="0 0 50 50"
   version="1.1"
   id="svg1143"
   sodipodi:docname="bNM.svg"
   inkscape:version="0.92.5 (2060ec1f9f, 2020-04-08)">
  <metadata
     id="metadata1147">
    <rdf:RDF>
      <cc:Work
         rdf:about="">
        <dc:format>image/svg+xml</dc:format>
        <dc:type
           rdf:resource="http://purl.org/dc/dcmitype/StillImage" />
        <dc:title></dc:title>
      </cc:Work>
    </rdf:RDF>
  </metadata>
  <sodipodi:namedview
     pagecolor="#ffffff"
     bordercolor="#666666"
     borderopacity="1"
     objecttolerance="10"
     gridtolerance="10"
     guidetolerance="10"
     inkscape:pageopacity="0"
     inkscape:pageshadow="2"
     inkscape:window-width="1848"
     inkscape:window-height="1016"
     id="namedview1145"
     showgrid="false"
     inkscape:zoom="1.8838088"
     inkscape:cx="163.32778"
     inkscape:cy="93.845628"
     inkscape:window-x="72"
     inkscape:window-y="27"
     inkscape:window-maximized="1"
     inkscape:current-layer="svg1143" />
  <defs
     id="defs1137">
    <linearGradient
       id="0"
       x1="21.253"
       y1="37.592"
       x2="77.64"
       y2="37.469"
       gradientUnits="userSpaceOnUse">
      <stop
         stop-color="#fff"
         id="stop1132" />
      <stop
         offset="1"
         stop-color="#fff"
         stop-opacity="0"
         id="stop1134" />
    </linearGradient>
    <linearGradient
       inkscape:collect="always"
       xlink:href="#linearGradient6661"
       id="linearGradient6663"
       x1="18.65144"
       y1="35.580711"
       x2="30.711206"
       y2="35.580711"
       gradientUnits="userSpaceOnUse"
       gradientTransform="translate(-3.3870032e-6,4.1105187)" />
    <linearGradient
       inkscape:collect="always"
       id="linearGradient6661">
      <stop
         style="stop-color:#ffffff;stop-opacity:1;"
         offset="0"
         id="stop6657" />
      <stop
         style="stop-color:#b3b3b3;stop-opacity:1"
         offset="1"
         id="stop6659" />
    </linearGradient>
    <linearGradient
       inkscape:collect="always"
       xlink:href="#linearGradient6661"
       id="linearGradient6689"
       x1="60.948723"
       y1="78.781807"
       x2="158.5957"
       y2="78.781807"
       gradientUnits="userSpaceOnUse"
       gradientTransform="matrix(0.28221482,0,0,0.28221482,-3.3870032e-6,4.1105187)" />
    <linearGradient
       inkscape:collect="always"
       xlink:href="#linearGradient6661"
       id="linearGradient6699"
       x1="22.510593"
       y1="9.7722454"
       x2="40.413136"
       y2="9.7722454"
       gradientUnits="userSpaceOnUse"
       gradientTransform="matrix(0.80477765,0,0,0.80477765,4.7633376,6.1338864)" />
  </defs>
  <g
     id="g5409"
     transform="translate(-43.080869,-30.713034)"
     style="fill:#000077;fill-opacity:1;stroke:#000077;stroke-opacity:1">
    <path
       sodipodi:nodetypes="cssssccc"
       inkscape:connector-curvature="0"
       id="path4760"
       d="m 74.950702,39.301691 c -0.464408,-3.276698 -0.778536,-4.897035 0.569946,-6.504093 3.06513,-3.652879 8.203685,-0.180238 11.61441,2.856408 1.952243,1.738121 4.081107,3.789561 4.967647,5.979194 0.603667,1.490974 0.826869,3.189412 -0.365031,4.609863 -1.600228,1.907078 -4.412278,1.474244 -6.702966,1.566663 -2.035762,-4.613629 -5.31888,-7.45903 -10.084006,-8.508035 z"
       style="fill:#000077;fill-opacity:1;stroke:#000077;stroke-width:0.846645;stroke-linecap:butt;stroke-linejoin:miter;stroke-miterlimit:4;stroke-dasharray:none;stroke-opacity:1" />
    <path
       sodipodi:nodetypes="cccccc"
       inkscape:connector-curvature="0"
       id="path5347"
       d="m 74.950702,39.301691 -1.601863,1.909027 c 1.783776,4.57347 5.161681,7.387635 10.102314,8.476848 l 1.583615,-1.877789 v 0 C 82.942942,42.892633 79.376186,40.393361 74.950737,39.30172 Z"
       style="fill:#000077;fill-opacity:1;stroke:#000077;stroke-width:0.846645;stroke-linecap:butt;stroke-linejoin:miter;stroke-miterlimit:4;stroke-dasharray:none;stroke-opacity:1" />
    <path
       sodipodi:nodetypes="cscc"
       inkscape:connector-curvature="0"
       id="path5355"
       d="m 85.736172,34.433653 c 0.765535,-0.598755 1.559463,-0.803568 2.299435,-0.188519 0.646882,0.537707 0.753225,1.456647 0.233888,2.384054 z"
       style="fill:#000077;fill-opacity:1;stroke:#000077;stroke-width:0.846645;stroke-linecap:butt;stroke-linejoin:miter;stroke-miterlimit:4;stroke-dasharray:none;stroke-opacity:1" />
  </g>
  <path
     style="fill:url(#linearGradient6663);fill-opacity:1;stroke:none;stroke-width:0.1411075px;stroke-linecap:butt;stroke-linejoin:miter;stroke-opacity:1"
     d="m 32.183856,9.1177898 -1.372224,1.6353532 c 4.410921,1.48713 7.262293,4.139191 9.238316,7.751868 l 1.372223,-1.635353 c -2.09045,-4.008171 -5.249237,-6.316714 -9.238315,-7.7518682 z"
     id="path6655"
     inkscape:connector-curvature="0"
     sodipodi:nodetypes="ccccc" />
  <path
     style="fill:url(#linearGradient6689);fill-opacity:1;stroke:none;stroke-width:0.79326499;stroke-linecap:butt;stroke-linejoin:miter;stroke-miterlimit:4;stroke-dasharray:none;stroke-opacity:1"
     d="M 43.206682,4.6755073 C 40.034051,1.9862145 35.634116,-0.67311755 32.941728,2.5355445 c -1.263462,1.5057358 -0.695908,4.4755678 0.0433,5.5518408 4.336321,1.7732365 6.780753,3.7281767 9.336226,7.7555947 1.381502,0.591755 4.31562,1.077266 5.814957,-0.709574 1.116752,-1.330894 0.907625,-2.922188 0.342019,-4.319158 C 47.647583,8.7626683 45.653024,6.8406353 43.823868,5.2120963 43.624114,5.0343013 43.418194,4.8547913 43.20668,4.6755083 Z m -0.346014,0.61988 c 0.184737,0.156449 0.364688,0.312667 0.538911,0.466951 1.595747,1.412733 3.341712,3.0732935 4.120103,4.7926447 0.530029,1.170752 0.918756,2.68029 0.03975,3.727844 -1.180138,1.406434 -3.014301,1.268216 -4.591825,0.647939 -2.018368,-3.618039 -5.265848,-6.3488247 -9.073369,-7.6130917 -0.764615,-1.759971 -0.75556,-2.939716 0.217912,-4.2677288 1.949131,-2.65900704 5.977362,-0.101195 8.748514,2.2454418 z"
     id="path4760-0"
     inkscape:connector-curvature="0"
     sodipodi:nodetypes="ssccssssssssccss" />
  <path
     fill="#1f1a17"
     d="m26.18 9.395c2.599.169 5 .838 7.222 2.02 2.21 1.168 4.098 2.675 5.656 4.513 1.092 1.287 2.117 2.845 3.082 4.665.974 1.812 1.744 3.742 2.32 5.774.66 2.371 1.084 4.851 1.253 7.459.178 2.599.263 5.01.263 7.23v5.402c0 0-1.287 0-3.861 0-2.565 0-5.901 0-10.01 0h-16.637c-.152 0-.22-.406-.212-1.211.008-.813.059-1.465.161-1.964.059-.398.22-.957.466-1.685.254-.728.66-1.609 1.245-2.65.262-.533.889-1.304 1.88-2.32.999-1.016 2.134-2.201 3.429-3.539.745-.762 1.321-1.719 1.744-2.879.423-1.151.601-2.201.533-3.15-.61.5-1.279.906-2.01 1.219-3.505 1.253-6.05 3.073-7.611 5.452-.119.152-.491.821-1.118 2.02-.33.627-.618 1.058-.847 1.287-.313.313-.771.491-1.363.525-.923.042-1.643-.398-2.159-1.346-.694.203-1.312.288-1.863.254-.923-.347-1.592-.72-2.01-1.118-.847-.847-1.389-1.685-1.651-2.532-.254-.847-.381-1.753-.381-2.726 0-1.389.855-3.226 2.582-5.512 2.02-2.625 3.09-4.631 3.217-6 0-.593.059-1.262.178-2.01.102-.517.305-1.01.618-1.49.22-.33.364-.559.432-.677.076-.127.212-.313.415-.559.144-.203.271-.356.373-.457.093-.11.22-.254.373-.44.178-.212.406-.457.694-.745-.88-2.413-1.236-4.902-1.067-7.459 3.285 1.168 6.05 3.01 8.28 5.529.55-1.871 1.626-3.387 3.226-4.538 1.321.923 2.371 2.151 3.15 3.666"
     id="path1139" />
  <path
     style="fill:url(#linearGradient6699);fill-opacity:1;stroke:none;stroke-width:0.11356001px;stroke-linecap:butt;stroke-linejoin:miter;stroke-opacity:1"
     d="m 43.404035,3.7543845 1.624508,1.3631238 c 0.356949,-0.573765 0.03016,-1.097923 -0.274158,-1.3477038 -0.313237,-0.257093 -0.848437,-0.428881 -1.35035,-0.01542 z"
     id="path6691"
     inkscape:connector-curvature="0"
     sodipodi:nodetypes="ccsc" />
  <path
     fill="url(#0)"
     d="m15.688 17.786c.364-.186.542-.279.542-.279.499-.195.652-.559.474-1.092-.195-.491-.576-.66-1.143-.491-1.947.711-3.294 2.02-4.04 3.92-.118.542.076.914.593 1.118.516.161.864-.017 1.041-.55.136-.279.229-.466.296-.542.186.144.423.245.72.296 1.01.161 1.6-.279 1.761-1.338.051-.364-.034-.711-.246-1.041m-4.115 16.764c.059-.152.169-.373.322-.669.279-.694.415-1.109.415-1.245-.025-.457-.271-.694-.72-.694-.33 0-.711.474-1.16 1.414-.068.136-.169.254-.296.347-.449.466-.381.855.195 1.168.533.313.94.212 1.245-.322m14.63-9.203c1.16-1.524 1.727-3.217 1.71-5.08-.068-.55-.381-.821-.94-.821-.762 0-1.058.279-.898.838.051.914-.034 1.668-.271 2.261-.381.94-.804 1.642-1.261 2.108-.254.5-.102.864.449 1.092.525.245.931.119 1.211-.398m-6.477-12.11c-.076-.593-.059-1.236.051-1.93-.991.195-1.922.66-2.802 1.389-.525.279-.652.669-.373 1.168.279.508.669.593 1.168.246.347-.186.669-.356.957-.508.288-.161.618-.279.999-.364m23.25 31.454c-.017 0 0-.449.042-1.346.131-3.107.095-6.221.076-9.33-.017-2.21-.313-4.411-.889-6.613-.84-3.31-2.124-6.485-4.072-9.296-2.634-3.845-6.814-6.03-11.286-6.976.126.766.033 1.54.076 2.311 1.6.542 3.116 1.219 4.538 2.032 4.241 2.554 6.414 7.275 7.197 11.93 1.272 6.154.453 11.557.813 17.289h3.505m-33.537-14.554c.474-.339.525-.728.144-1.194-.398-.381-.83-.415-1.312-.102-1.01.66-1.549 1.532-1.617 2.608.017.542.347.804.974.771.593-.051.881-.356.864-.923.135-.525.449-.914.948-1.16"
     id="path1141" />
</svg>
