<?xml version="1.0" encoding="UTF-8" standalone="no"?>
<svg
   xmlns:dc="http://purl.org/dc/elements/1.1/"
   xmlns:cc="http://creativecommons.org/ns#"
   xmlns:rdf="http://www.w3.org/1999/02/22-rdf-syntax-ns#"
   xmlns:svg="http://www.w3.org/2000/svg"
   xmlns="http://www.w3.org/2000/svg"
   xmlns:xlink="http://www.w3.org/1999/xlink"
   xmlns:sodipodi="http://sodipodi.sourceforge.net/DTD/sodipodi-0.dtd"
   xmlns:inkscape="http://www.inkscape.org/namespaces/inkscape"
   width="177.17"
   height="177.17"
   shape-rendering="geometricPrecision"
   image-rendering="optimizeQuality"
   fill-rule="evenodd"
   clip-rule="evenodd"
   viewBox="0 0 50 50"
   version="1.1"
   id="svg4798"
   sodipodi:docname="wMN.svg"
   inkscape:version="0.92.5 (2060ec1f9f, 2020-04-08)">
  <metadata
     id="metadata4802">
    <rdf:RDF>
      <cc:Work
         rdf:about="">
        <dc:format>image/svg+xml</dc:format>
        <dc:type
           rdf:resource="http://purl.org/dc/dcmitype/StillImage" />
        <dc:title></dc:title>
      </cc:Work>
    </rdf:RDF>
  </metadata>
  <sodipodi:namedview
     pagecolor="#ffffff"
     bordercolor="#666666"
     borderopacity="1"
     objecttolerance="10"
     gridtolerance="10"
     guidetolerance="10"
     inkscape:pageopacity="0"
     inkscape:pageshadow="2"
     inkscape:window-width="1848"
     inkscape:window-height="1016"
     id="namedview4800"
     showgrid="false"
     inkscape:zoom="2.664108"
     inkscape:cx="11.463716"
     inkscape:cy="54.020294"
     inkscape:window-x="72"
     inkscape:window-y="27"
     inkscape:window-maximized="1"
     inkscape:current-layer="svg4798" />
  <defs
     id="defs4788">
    <linearGradient
       inkscape:collect="always"
       id="linearGradient5385">
      <stop
         style="stop-color:#ffffff;stop-opacity:1;"
         offset="0"
         id="stop5381" />
      <stop
         style="stop-color:#999999;stop-opacity:1"
         offset="1"
         id="stop5383" />
    </linearGradient>
    <linearGradient
       id="0"
       x1="21.376"
       x2="77.64"
       gradientUnits="userSpaceOnUse">
      <stop
         stop-color="#fff"
         id="stop4783" />
      <stop
         offset="1"
         stop-color="#fff"
         stop-opacity="0"
         id="stop4785" />
    </linearGradient>
    <linearGradient
       inkscape:collect="always"
       xlink:href="#linearGradient5385"
       id="linearGradient5387"
       x1="62.930347"
       y1="26.730312"
       x2="91.34343"
       y2="26.730312"
       gradientUnits="userSpaceOnUse" />
    <linearGradient
       inkscape:collect="always"
       xlink:href="#linearGradient5385"
       id="linearGradient5395"
       x1="58.476898"
       y1="39.452381"
       x2="89.779778"
       y2="39.452381"
       gradientUnits="userSpaceOnUse" />
    <linearGradient
       inkscape:collect="always"
       xlink:href="#linearGradient5385"
       id="linearGradient5403"
       x1="62.955688"
       y1="13.960634"
       x2="88.305"
       y2="13.960634"
       gradientUnits="userSpaceOnUse" />
    <linearGradient
       id="0-7"
       x1="32.633816"
       x2="51.368813"
       gradientUnits="userSpaceOnUse"
       y2="26.165255"
       y1="4.025424">
      <stop
         stop-color="#fff"
         id="stop5660"
         style="stop-color:#ffdddd;stop-opacity:1" />
      <stop
         offset="1"
         stop-color="#fff"
         stop-opacity="0"
         id="stop5662"
         style="stop-color:#ff0000;stop-opacity:1" />
    </linearGradient>
  </defs>
  <path
     inkscape:connector-curvature="0"
     style="fill:#1f1a17;stroke-width:0.5"
     d="m 47.103041,8.9799919 c 0.941159,0.900033 1.645784,1.9279411 2.11697,3.0948101 0.471092,1.157651 0.709898,2.341657 0.715924,3.546383 0.0046,0.843912 -0.103507,1.770089 -0.318827,2.777335 -0.209303,1.007073 -0.534665,1.99378 -0.967116,2.957204 -0.509231,1.120264 -1.143884,2.206431 -1.917349,3.259668 -0.767126,1.052684 -1.50945,2.003468 -2.222943,2.853777 l -1.73617,2.069086 c 0,0 -0.492949,-0.413633 -1.478848,-1.240901 -0.982452,-0.824375 -2.260215,-1.896546 -3.834053,-3.217153 l -6.37234,-5.347028 c -0.05822,-0.04885 0.04622,-0.226214 0.308007,-0.531975 0.264357,-0.308825 0.49344,-0.542166 0.692884,-0.700511 0.150513,-0.133481 0.391839,-0.295846 0.720036,-0.495623 0.331263,-0.197207 0.769918,-0.404162 1.328557,-0.614873 0.271655,-0.119947 0.759605,-0.213743 1.465715,-0.284391 0.709176,-0.06808 1.524757,-0.157178 2.450796,-0.253457 0.530254,-0.05242 1.058449,-0.233854 1.593284,-0.542211 0.531943,-0.304909 0.937584,-0.649874 1.216541,-1.035216 -0.394341,-0.0045 -0.781068,-0.06405 -1.161653,-0.179098 -1.7452,-0.646559 -3.304928,-0.767405 -4.667422,-0.357891 -0.09443,0.01997 -0.451928,0.156657 -1.077434,0.414387 -0.327912,0.134095 -0.576742,0.206615 -0.738053,0.220728 -0.220483,0.01929 -0.453115,-0.05973 -0.690792,-0.236972 -0.367028,-0.28056 -0.50139,-0.680494 -0.394348,-1.209438 -0.331061,-0.145294 -0.595087,-0.311358 -0.795205,-0.501469 -0.242006,-0.429554 -0.378368,-0.787434 -0.410556,-1.07422 -0.0522,-0.59664 0.0095,-1.091809 0.181399,-1.500434 0.174933,-0.406054 0.417472,-0.793889 0.730188,-1.1665691 0.446416,-0.532018 1.3643,-0.960838 2.760486,-1.281379 1.617363,-0.356218 2.671913,-0.780669 3.160545,-1.26421 0.190586,-0.227132 0.428197,-0.464411 0.714179,-0.712666 0.205229,-0.16524 0.44143,-0.288827 0.715585,-0.372082 0.190325,-0.05569 0.319079,-0.09712 0.383049,-0.120464 0.06993,-0.02422 0.181797,-0.05175 0.338614,-0.08073 0.120398,-0.03147 0.218215,-0.04926 0.289744,-0.05516 0.07097,-0.01224 0.165899,-0.02658 0.28428,-0.04865 0.136314,-0.02399 0.302384,-0.04455 0.505256,-0.0623 0.438464,-1.20706 1.102058,-2.274818 1.988592,-3.19989 0.882841,1.503148 1.34989,3.097329 1.394437,4.778871 0.811991,-0.539869 1.711356,-0.774711 2.694116,-0.701339 0.209326,0.77809 0.216827,1.585905 0.02829,2.41655"
     id="path5667" />
  <path
     inkscape:connector-curvature="0"
     style="fill:url(#0-7);stroke-width:0.5"
     d="m 42.191724,27.898039 c -0.0065,-0.0055 0.144305,-0.171977 0.448683,-0.502049 0.310717,-0.330627 0.63333,-0.695656 0.967901,-1.094382 0.67051,-0.78586 1.356365,-1.60323 2.059812,-2.45479 0.703769,-0.851943 1.297783,-1.790107 1.78487,-2.818645 0.463218,-0.993087 0.805982,-1.882298 1.028063,-2.674353 0.222464,-0.791733 0.35381,-1.52155 0.399887,-2.195639 0.120128,-1.06493 -0.01543,-2.168178 -0.403003,-3.300129 -0.384678,-1.135399 -0.944139,-2.134839 -1.677743,-2.9990851 -0.203074,0.3602491 -0.432858,0.6869891 -0.689735,0.9799001 -0.203609,0.216205 -0.405605,0.23991 -0.610139,0.06829 -0.233643,-0.19605 -0.24231,-0.396523 -0.02874,-0.604371 0.721458,-0.8201298 1.024734,-1.7875138 0.909737,-2.8950448 -0.904488,0.103266 -1.659617,0.46958 -2.258641,1.111129 -0.200717,0.212757 -0.395726,0.214912 -0.591366,0.007 -0.195623,-0.175244 -0.19795,-0.376271 -0.0077,-0.60302 0,0 0.02837,-0.02058 0.08133,-0.06425 -0.329999,-0.133318 -0.700736,-0.245329 -1.114003,-0.332324 -0.287612,-0.02594 -0.409672,-0.183844 -0.365242,-0.467041 0.047,-0.28626 0.220988,-0.394822 0.52783,-0.319455 0.389317,0.08909 0.680948,0.156916 0.880147,0.202661 -0.07671,-1.014703 -0.320728,-1.982471 -0.729538,-2.910978 -0.665481,0.944771 -1.118722,1.978866 -1.374913,3.107161 -0.02909,0.251687 -0.1772,0.376085 -0.442536,0.369487 -0.295476,-0.01035 -0.42808,-0.154906 -0.393054,-0.440119 0.01218,-0.100084 0.04291,-0.268157 0.100226,-0.501375 -0.244432,0.02139 -0.419735,0.04595 -0.513291,0.07188 -0.09405,0.0203 -0.278566,0.08151 -0.552144,0.183525 -0.27615,0.105078 -0.493239,0.199665 -0.65139,0.282353 -0.188533,0.112674 -0.320639,0.217216 -0.39585,0.327073 -0.07206,0.105323 -0.151768,0.220542 -0.248746,0.349339 -0.371257,0.324212 -0.794855,0.565341 -1.271328,0.729469 -0.475878,0.158753 -1.066136,0.348806 -1.777669,0.564375 -0.679226,0.203516 -1.194969,0.356883 -1.543806,0.450575 -0.352111,0.09682 -0.714328,0.28502 -1.094746,0.5734778 -0.237879,0.165258 -0.458355,0.428011 -0.655965,0.781749 -0.203245,0.35423 -0.278362,0.700445 -0.234604,1.030227 0.04439,0.539829 0.212261,0.913052 0.503551,1.118965 0.08771,0.0736 0.237488,0.138575 0.446264,0.192354 0.206203,0.05684 0.431484,0.01939 0.681589,-0.107543 0.464128,-0.224092 0.752825,-0.291228 0.863135,-0.198666 0.155507,0.130485 0.167049,0.294861 0.03319,0.480829 -0.03278,0.03907 -0.218252,0.154313 -0.552579,0.348949 -0.164279,0.07755 -0.350492,0.147782 -0.561703,0.20814 -0.262175,0.06198 -0.371091,0.08677 -0.336214,0.07165 -0.204329,0.447309 -0.08716,0.650711 0.34215,0.612796 0.125386,-0.01097 0.317728,-0.07606 0.563244,-0.190529 0.251152,-0.114958 0.605584,-0.254213 1.064262,-0.418913 0.539294,-0.188434 1.02926,-0.291634 1.481059,-0.315901 0.448845,-0.02152 0.833288,-0.02464 1.150808,-0.0017 0.184081,0.01087 0.402564,0.03363 0.657698,0.06561 0.258027,0.02853 0.571975,0.103987 0.945181,0.223945 0.29422,0.09741 0.632744,0.19414 1.010961,0.290236 0.378217,0.0961 0.75651,0.132205 1.135732,0.101866 0.531301,-0.04045 1.04874,-0.202837 1.558978,-0.488102 0.280315,-0.162937 0.551434,-0.426927 0.820512,-0.787272 0.124504,-0.26039 0.321419,-0.277263 0.593747,-0.04875 0.204151,0.171303 0.230811,0.370556 0.08009,0.603073 -0.598757,0.71357 -1.349598,1.193788 -2.250487,1.443669 -0.207125,0.516761 -0.544321,0.990957 -1.011758,1.416567 -0.379763,0.340572 -0.863545,0.640203 -1.444453,0.904678 -0.581463,0.258136 -1.420362,0.389025 -2.517312,0.385621 -2.227749,-0.01236 -3.789991,0.588533 -4.683326,1.800962 0,0 0.538146,0.451559 1.618269,1.357889 1.079739,0.906009 2.095131,1.758024 3.045026,2.555081 l 5.198378,4.361957 M 34.152833,11.311143 c -0.280133,-0.04186 -0.517975,0.01834 -0.71774,0.177073 -0.167684,0.213062 -0.360105,0.244802 -0.577583,0.0956 -0.245539,-0.161647 -0.280233,-0.351325 -0.104515,-0.573962 0.377008,-0.396406 0.839309,-0.572425 1.39643,-0.524633 0.27699,0.0059 0.421398,0.143424 0.427439,0.419365 -0.0049,0.288964 -0.145994,0.424462 -0.424031,0.406553 m 6.622786,-2.1629991 c -0.02486,0.194533 -0.104209,0.354439 -0.240347,0.477789 -0.401701,0.353493 -0.770568,0.331819 -1.104527,-0.05349 -0.09698,-0.114667 -0.155299,-0.229522 -0.180644,-0.344778 -0.04702,0.01015 -0.145871,0.04861 -0.28757,0.112465 -0.23948,0.146943 -0.429597,0.103597 -0.575492,-0.123908 -0.129333,-0.241022 -0.08721,-0.449132 0.132186,-0.618806 0.897607,-0.490219 1.832252,-0.557084 2.807273,-0.203016 0.271489,0.1175 0.360041,0.30211 0.270415,0.547382 -0.09355,0.269394 -0.269078,0.360345 -0.522939,0.273955 -0.05201,-0.01036 -0.104025,-0.02071 -0.147509,-0.03501 -0.04606,-0.01123 -0.09462,-0.01869 -0.15008,-0.03194"
     id="path5669" />
  <g
     id="g5409"
     transform="translate(-47.90079,0.30426217)">
    <path
       sodipodi:nodetypes="cssssccc"
       inkscape:connector-curvature="0"
       id="path4760"
       d="m 59.323542,36.845189 c -4.923955,-4.423162 -7.488294,-6.501829 -7.488294,-10.697558 0,-9.536991 12.337066,-10.822594 21.466437,-10.554927 5.225494,0.153208 11.124384,0.559374 15.29758,2.774372 2.841632,1.508247 5.367066,3.823463 5.367066,7.531995 0,4.979028 -4.86475,7.93099 -8.255477,11.017435 -9.050136,-4.451366 -17.738141,-4.590077 -26.387312,-0.07133 z"
       style="fill:url(#linearGradient5387);fill-opacity:1;stroke:#1f1a17;stroke-width:1.69328892;stroke-linecap:butt;stroke-linejoin:miter;stroke-miterlimit:4;stroke-dasharray:none;stroke-opacity:1" />
    <path
       sodipodi:nodetypes="cccccc"
       inkscape:connector-curvature="0"
       id="path5347"
       d="m 59.323542,36.845189 v 4.984114 c 8.612444,4.713783 17.405516,4.682783 26.375269,0 l 0.01211,-4.912797 v 0 C 76.184699,32.072204 67.50711,32.82843 59.323542,36.845182 Z"
       style="fill:url(#linearGradient5395);fill-opacity:1;stroke:#1f1a17;stroke-width:1.69328892;stroke-linecap:butt;stroke-linejoin:miter;stroke-miterlimit:4;stroke-dasharray:none;stroke-opacity:1" />
    <path
       sodipodi:nodetypes="ccc"
       inkscape:connector-curvature="0"
       id="path5353"
       d="m 59.323542,41.829303 c 8.60722,-4.521092 17.387757,-4.795999 26.375269,0 v 0"
       style="fill:none;stroke:#1f1a17;stroke-width:1.69328892;stroke-linecap:butt;stroke-linejoin:miter;stroke-miterlimit:4;stroke-dasharray:none;stroke-opacity:1" />
    <path
       sodipodi:nodetypes="cscc"
       inkscape:connector-curvature="0"
       id="path5355"
       d="m 69.664515,15.521388 c 0.403124,-1.901498 1.356191,-3.235945 3.280585,-3.244926 1.682343,-0.0078 3.026638,1.263387 3.423218,3.351902 z"
       style="fill:url(#linearGradient5403);fill-opacity:1;stroke:#1f1a17;stroke-width:1.69328892;stroke-linecap:butt;stroke-linejoin:miter;stroke-miterlimit:4;stroke-dasharray:none;stroke-opacity:1" />
  </g>
</svg>
