<?xml version="1.0" encoding="UTF-8" standalone="no"?>
<svg
   xmlns:dc="http://purl.org/dc/elements/1.1/"
   xmlns:cc="http://creativecommons.org/ns#"
   xmlns:rdf="http://www.w3.org/1999/02/22-rdf-syntax-ns#"
   xmlns:svg="http://www.w3.org/2000/svg"
   xmlns="http://www.w3.org/2000/svg"
   xmlns:sodipodi="http://sodipodi.sourceforge.net/DTD/sodipodi-0.dtd"
   xmlns:inkscape="http://www.inkscape.org/namespaces/inkscape"
   width="177.17"
   height="177.17"
   shape-rendering="geometricPrecision"
   image-rendering="optimizeQuality"
   fill-rule="evenodd"
   clip-rule="evenodd"
   viewBox="0 0 50 50"
   version="1.1"
   id="svg5890"
   sodipodi:docname="wPR.svg"
   inkscape:version="0.92.5 (2060ec1f9f, 2020-04-08)">
  <metadata
     id="metadata5894">
    <rdf:RDF>
      <cc:Work
         rdf:about="">
        <dc:format>image/svg+xml</dc:format>
        <dc:type
           rdf:resource="http://purl.org/dc/dcmitype/StillImage" />
        <dc:title></dc:title>
      </cc:Work>
    </rdf:RDF>
  </metadata>
  <sodipodi:namedview
     pagecolor="#ffffff"
     bordercolor="#666666"
     borderopacity="1"
     objecttolerance="10"
     gridtolerance="10"
     guidetolerance="10"
     inkscape:pageopacity="0"
     inkscape:pageshadow="2"
     inkscape:window-width="1848"
     inkscape:window-height="1016"
     id="namedview5892"
     showgrid="false"
     inkscape:zoom="5.3282159"
     inkscape:cx="99.18283"
     inkscape:cy="86.852303"
     inkscape:window-x="72"
     inkscape:window-y="27"
     inkscape:window-maximized="1"
     inkscape:current-layer="svg5890" />
  <defs
     id="defs5884">
    <linearGradient
       id="0"
       gradientUnits="userSpaceOnUse"
       x1="21.13"
       y1="37.35"
       x2="77.76"
       y2="37.469"
       gradientTransform="matrix(1 0 0 .97324 0 1.243)">
      <stop
         stop-color="#fff"
         id="stop5879" />
      <stop
         offset="1"
         stop-color="#fff"
         stop-opacity="0"
         id="stop5881" />
    </linearGradient>
    <linearGradient
       id="0-6"
       x1="42.637711"
       x2="30.773306"
       gradientUnits="userSpaceOnUse"
       y1="27.913136"
       y2="18.48517">
      <stop
         stop-color="#fff"
         id="stop4723"
         style="stop-color:#ff0000;stop-opacity:1" />
      <stop
         offset="1"
         stop-color="#fff"
         stop-opacity="0"
         id="stop4725"
         style="stop-color:#ffdddd;stop-opacity:1" />
    </linearGradient>
  </defs>
  <path
     inkscape:connector-curvature="0"
     style="fill:#1f1a17;stroke-width:0.5"
     d="m 42.267954,17.184574 1.614821,1.354997 1.091132,-1.300361 2.603019,2.184192 -2.987355,3.560192 -3.470296,-0.142503 -3.810767,4.541495 0.259752,2.973018 -1.632681,1.945754 1.451271,1.21776 -1.905544,2.270938 -12.968749,-10.882072 1.905543,-2.270938 1.453186,1.219368 1.632682,-1.945754 2.982915,-0.252098 3.810766,-4.541494 -0.746013,-3.395401 2.987356,-3.560191 2.594592,2.177121 -1.091132,1.300361 1.624781,1.363352 1.091132,-1.30036 2.600721,2.182264 z"
     id="path4730" />
  <path
     inkscape:connector-curvature="0"
     style="fill:url(#0-6);stroke-width:0.5;fill-opacity:1"
     d="m 41.335254,21.922514 2.028324,0.033 -8.587358,-7.205649 0.394292,1.999813 6.166658,5.17444 M 36.210633,33.63196 24.523092,23.824949 23.701289,24.804336 35.38883,34.611347 36.210633,33.63196 m 0.150702,-3.1697 -8.742866,-7.336136 -1.083096,1.290783 8.742866,7.336136 1.083096,-1.290783 m 4.102131,-8.168197 -5.512839,-4.625821 -3.812373,4.543409 5.512839,4.625821 3.812373,-4.543409 m 4.012672,-0.501543 1.904901,-2.270173 -1.30036,-1.091132 -1.091133,1.300362 -2.928205,-2.457056 1.091133,-1.300361 -1.280826,-1.074741 -1.091133,1.300361 -2.918629,-2.449021 1.091132,-1.300361 -1.30036,-1.091132 -1.904901,2.270173 9.728765,8.163403 m -7.803385,7.811661 -0.162173,-1.788723 -6.301098,-5.287249 -1.809243,0.134509 8.272514,6.941463"
     id="path4732" />
  <path
     d="m25 46.45h-13.394c-.66-1.607-.991-3.288-.991-5.04 0-2.975.864-5.644 2.599-8.02 1.736-2.365 3.971-4.054 6.697-5.068-1.168-.527-2.125-1.327-2.862-2.398-.737-1.071-1.101-2.283-1.101-3.634 0-1.689.576-3.156 1.736-4.392 1.152-1.244 2.574-1.961 4.267-2.151-1.346-.981-2.02-2.282-2.02-3.889 0-1.351.491-2.513 1.482-3.477.982-.964 2.176-1.442 3.581-1.442 1.389 0 2.582.478 3.573 1.442.991.964 1.49 2.126 1.49 3.477 0 1.607-.669 2.909-2.02 3.889 1.693.19 3.116.906 4.267 2.151 1.16 1.236 1.736 2.703 1.736 4.392 0 1.351-.373 2.563-1.126 3.634-.753 1.071-1.71 1.87-2.862 2.398 2.726 1.014 4.961 2.703 6.697 5.068 1.736 2.373 2.599 5.04 2.599 8.02 0 1.739-.322 3.42-.965 5.04h-13.394"
     fill="#1f1a17"
     id="path5886" />
  <path
     d="m25 44.808h12.175c.347-1.154.525-2.291.525-3.403 0-2.513-.711-4.787-2.142-6.831-1.431-2.044-3.277-3.552-5.52-4.516-1.584-.62-1.643-.659-1.643-1.739 0-.849.559-1.475 1.668-1.879 1.532-1.047 2.303-2.431 2.303-4.153 0-1.244-.432-2.324-1.287-3.263-.864-.931-1.905-1.467-3.124-1.615-.999-.082-1.49-.626-1.49-1.64 0-.453.178-.873.542-1.261.898-.676 1.346-1.557 1.346-2.653 0-.898-.339-1.673-.999-2.316-.66-.643-1.448-.964-2.354-.964-.94 0-1.744.321-2.396.964-.652.643-.974 1.417-.974 2.316 0 1.079.44 1.961 1.338 2.653.364.354.542.775.542 1.261 0 1.014-.483 1.557-1.465 1.64-1.236.148-2.286.684-3.133 1.615-.855.939-1.279 2.02-1.279 3.263 0 1.722.77 3.106 2.303 4.153 1.109.412 1.668 1.046 1.668 1.879 0 1.079-.067 1.118-1.668 1.739-2.244.964-4.081 2.472-5.503 4.516-1.422 2.044-2.134 4.318-2.134 6.831 0 1.195.178 2.324.525 3.403h12.175"
     fill="url(#0)"
     id="path5888" />
</svg>
