<?xml version="1.0" encoding="UTF-8" standalone="no"?>
<svg
   xmlns:dc="http://purl.org/dc/elements/1.1/"
   xmlns:cc="http://creativecommons.org/ns#"
   xmlns:rdf="http://www.w3.org/1999/02/22-rdf-syntax-ns#"
   xmlns:svg="http://www.w3.org/2000/svg"
   xmlns="http://www.w3.org/2000/svg"
   xmlns:xlink="http://www.w3.org/1999/xlink"
   xmlns:sodipodi="http://sodipodi.sourceforge.net/DTD/sodipodi-0.dtd"
   xmlns:inkscape="http://www.inkscape.org/namespaces/inkscape"
   width="177.17"
   height="177.17"
   shape-rendering="geometricPrecision"
   image-rendering="optimizeQuality"
   fill-rule="evenodd"
   clip-rule="evenodd"
   viewBox="0 0 50 50"
   version="1.1"
   id="svg4734"
   sodipodi:docname="wRP.svg"
   inkscape:version="0.92.5 (2060ec1f9f, 2020-04-08)">
  <metadata
     id="metadata4738">
    <rdf:RDF>
      <cc:Work
         rdf:about="">
        <dc:format>image/svg+xml</dc:format>
        <dc:type
           rdf:resource="http://purl.org/dc/dcmitype/StillImage" />
        <dc:title></dc:title>
      </cc:Work>
    </rdf:RDF>
  </metadata>
  <sodipodi:namedview
     pagecolor="#ffffff"
     bordercolor="#666666"
     borderopacity="1"
     objecttolerance="10"
     gridtolerance="10"
     guidetolerance="10"
     inkscape:pageopacity="0"
     inkscape:pageshadow="2"
     inkscape:window-width="1848"
     inkscape:window-height="1016"
     id="namedview4736"
     showgrid="false"
     inkscape:zoom="2.6641079"
     inkscape:cx="45.939488"
     inkscape:cy="90.475443"
     inkscape:window-x="72"
     inkscape:window-y="27"
     inkscape:window-maximized="1"
     inkscape:current-layer="svg4734" />
  <defs
     id="defs4728">
    <linearGradient
       id="0"
       x1="21.376"
       x2="77.64"
       gradientUnits="userSpaceOnUse">
      <stop
         stop-color="#fff"
         id="stop4723" />
      <stop
         offset="1"
         stop-color="#fff"
         stop-opacity="0"
         id="stop4725" />
    </linearGradient>
    <linearGradient
       id="0-3"
       gradientUnits="userSpaceOnUse"
       x1="32.211994"
       y1="18.62336"
       x2="43.961861"
       y2="29.199392"
       gradientTransform="matrix(1,0,0,0.97324,5e-6,1.243001)"
       xlink:href="#0">
      <stop
         stop-color="#fff"
         id="stop5879"
         style="stop-color:#ffdddd;stop-opacity:1" />
      <stop
         offset="1"
         stop-color="#fff"
         stop-opacity="0"
         id="stop5881"
         style="stop-color:#ff0000;stop-opacity:1" />
    </linearGradient>
  </defs>
  <path
     inkscape:connector-curvature="0"
     style="fill:#1f1a17;stroke-width:0.5"
     d="m 32.216214,31.233493 -5.1302,-4.304749 c 0.263686,-0.827637 0.677168,-1.577878 1.24025,-2.248933 0.956146,-1.139491 2.144878,-1.884093 3.573053,-2.236536 1.425023,-0.347908 2.823912,-0.276517 4.193924,0.211218 -0.277996,-0.577241 -0.387433,-1.191233 -0.325507,-1.838317 0.06193,-0.647084 0.312034,-1.228294 0.746237,-1.745757 0.542834,-0.646925 1.23494,-1.023695 2.076488,-1.124294 0.841056,-0.106234 1.616153,0.07616 2.325674,0.547507 -0.20026,-0.808341 -0.04029,-1.523273 0.476196,-2.138789 0.434203,-0.517463 0.995726,-0.804731 1.685125,-0.855463 0.685952,-0.05363 1.296906,0.147035 1.835053,0.598593 0.532017,0.446416 0.835337,1.012924 0.905088,1.700658 0.06975,0.687735 -0.11258,1.293182 -0.546783,1.810645 -0.51648,0.615517 -1.191177,0.8992 -2.023606,0.840358 0.587392,0.616894 0.902315,1.348482 0.943038,2.195268 0.04707,0.846233 -0.203801,1.593249 -0.746635,2.240174 -0.434203,0.517463 -0.966599,0.861806 -1.599228,1.030013 -0.632628,0.168207 -1.255974,0.166668 -1.866912,-0.0013 0.718225,1.264504 1.031446,2.629744 0.936276,4.093531 -0.09774,1.466852 -0.62435,2.765735 -1.582103,3.907141 -0.558904,0.666075 -1.222501,1.206447 -1.989442,1.620287 L 32.212,31.23"
     id="path5886" />
  <path
     inkscape:connector-curvature="0"
     style="fill:url(#0-3);fill-opacity:1;stroke-width:0.5"
     d="m 32.743943,30.60457 4.663296,3.912969 c 0.503796,-0.330483 0.937398,-0.708771 1.294789,-1.134693 0.807663,-0.962534 1.266183,-2.062037 1.375007,-3.30485 0.108825,-1.242811 -0.113573,-2.413702 -0.662868,-3.503822 -0.407443,-0.746561 -0.417507,-0.780461 -0.0704,-1.194125 0.272863,-0.325186 0.688165,-0.385299 1.24278,-0.183614 0.923289,0.09135 1.663408,-0.190957 2.216848,-0.850522 0.399814,-0.476479 0.581454,-1.028985 0.555759,-1.663435 -0.03172,-0.634278 -0.258173,-1.174149 -0.677511,-1.622615 -0.356285,-0.35248 -0.36951,-0.718649 -0.04362,-1.107033 0.145592,-0.173509 0.348755,-0.277171 0.612876,-0.308796 0.561216,0.02969 1.015958,-0.163769 1.368206,-0.583562 0.288611,-0.343954 0.407847,-0.749748 0.361709,-1.208152 -0.04614,-0.458403 -0.244793,-0.834611 -0.591811,-1.125794 -0.360041,-0.30211 -0.771158,-0.437561 -1.227545,-0.400826 -0.456387,0.03674 -0.828479,0.229705 -1.117412,0.574042 -0.346784,0.413281 -0.461723,0.89252 -0.340174,1.446183 0.02564,0.252577 -0.04148,0.471037 -0.197679,0.657186 -0.325894,0.388385 -0.68541,0.441132 -1.088214,0.157315 -0.520981,-0.340556 -1.095422,-0.472719 -1.719059,-0.388346 -0.629273,0.08487 -1.139101,0.362642 -1.538594,0.838738 -0.55344,0.659565 -0.703322,1.437141 -0.452648,2.330862 0.292357,0.514231 0.302703,0.936726 0.03498,1.255783 -0.346784,0.413281 -0.384981,0.406686 -1.197785,0.129991 -1.169325,-0.351974 -2.357599,-0.364777 -3.559185,-0.0389 -1.201587,0.325876 -2.205148,0.968036 -3.012811,1.93057 -0.384066,0.457713 -0.678742,0.947353 -0.892616,1.472157 l 4.663295,3.912969"
     id="path5888" />
  <path
     d="m28.408 9.22h4.216v-3.395h6.796v9.295l-5.5 4.243v11.857l4.22 4.221v5.08h3.789v5.929h-33.859v-5.929h3.794v-5.08l4.246-4.221v-11.857l-5.508-4.243v-9.295h6.774v3.395h4.242v-3.395h6.79z"
     id="path4730"
     fill="#1f1a17" />
  <path
     fill="url(#0)"
     d="m33.07 17.678l3.15-2.557h-22.42l3.175 2.557h16.1m7.197 24.528h-30.514v2.557h30.514v-2.557m-3.844-5.05h-22.826v3.37h22.826v-3.37m-4.216-17.788h-14.393v11.862h14.393v-11.862m5.503-5.927v-5.927h-3.395v3.395h-7.645v-3.395h-3.344v3.395h-7.62v-3.395h-3.395v5.927h25.4m-1.913 22l-2.548-2.532h-16.451l-2.599 2.532h21.598"
     id="path4732" />
</svg>
